<svg width="28" height="28" viewBox="0 0 28 28" fill="none" xmlns="http://www.w3.org/2000/svg">
<path d="M0.819094 21.3824H22.2576C22.4498 21.3824 22.6357 21.3152 22.7831 21.1925C22.989 21.0201 27.6861 16.9793 27.9725 8.25684H4.94808C4.66276 16.1745 0.336892 19.8961 0.291937 19.9332C0.0283864 20.1559 -0.0685789 20.5196 0.0499889 20.8433C0.167736 21.1661 0.474602 21.3824 0.819094 21.3824Z" fill="url(#paint0_linear_43_1887)"/>
<path d="M27.1797 3.33503H23.078V2.51469C23.078 2.05529 22.717 1.69434 22.2576 1.69434C21.7982 1.69434 21.4373 2.05529 21.4373 2.51469V3.33503H17.2808V2.51469C17.2808 2.05529 16.9199 1.69434 16.4605 1.69434C16.0011 1.69434 15.6401 2.05529 15.6401 2.51469V3.33503H11.5384V2.51469C11.5384 2.05529 11.1774 1.69434 10.718 1.69434C10.2586 1.69434 9.89768 2.05529 9.89768 2.51469V3.33503H5.79594C5.33654 3.33503 4.97559 3.69599 4.97559 4.15538V6.61643H28.0001V4.15538C28.0001 3.69599 27.6391 3.33503 27.1797 3.33503Z" fill="url(#paint1_linear_43_1887)"/>
<path d="M23.8366 22.4511C23.3912 22.822 22.832 23.0239 22.2576 23.0239H4.97559V25.485C4.97559 25.9384 5.3425 26.3053 5.79594 26.3053H27.1797C27.6331 26.3053 28.0001 25.9384 28.0001 25.485V16.2891C26.4184 20.1694 24.2114 22.1374 23.8366 22.4511Z" fill="url(#paint2_linear_43_1887)"/>
<defs>
<linearGradient id="paint0_linear_43_1887" x1="0" y1="14.8196" x2="27.9725" y2="14.8196" gradientUnits="userSpaceOnUse">
<stop stop-color="#E24854"/>
<stop offset="1" stop-color="#D13C48"/>
</linearGradient>
<linearGradient id="paint1_linear_43_1887" x1="4.97559" y1="4.15538" x2="28.0001" y2="4.15538" gradientUnits="userSpaceOnUse">
<stop stop-color="#E24854"/>
<stop offset="1" stop-color="#D13C48"/>
</linearGradient>
<linearGradient id="paint2_linear_43_1887" x1="4.97559" y1="21.2972" x2="28.0001" y2="21.2972" gradientUnits="userSpaceOnUse">
<stop stop-color="#E24854"/>
<stop offset="1" stop-color="#D13C48"/>
</linearGradient>
</defs>
</svg>
