<svg width="28" height="28" viewBox="0 0 28 28" fill="none" xmlns="http://www.w3.org/2000/svg">
<g clip-path="url(#clip0_43_1854)">
<path d="M1.16667 1.16699C0.522334 1.16699 0 1.68933 0 2.33366C0 2.97799 0.522334 3.50033 1.16667 3.50033H3.24251C3.41238 3.50033 3.57793 3.55377 3.71573 3.6531C3.85353 3.75242 3.95658 3.89259 4.01028 4.05374L7.85677 15.5954C8.02759 16.1078 8.0493 16.6596 7.91829 17.1836L7.60156 18.4528C7.13683 20.3117 8.58385 22.167 10.5 22.167H24.5C25.1443 22.167 25.6667 21.6447 25.6667 21.0003C25.6667 20.356 25.1443 19.8337 24.5 19.8337H10.5C10.0457 19.8337 9.75408 19.4609 9.86426 19.0202L10.1031 18.0662C10.1436 17.9045 10.2369 17.7611 10.3683 17.6585C10.4996 17.556 10.6615 17.5003 10.8281 17.5003H23.3333C23.8357 17.5006 24.2818 17.1793 24.4408 16.7028L27.5511 7.36947C27.8031 6.61371 27.2403 5.8333 26.4437 5.83366H7.64714C7.47727 5.83366 7.31171 5.78021 7.17391 5.68089C7.03611 5.58157 6.93305 5.44141 6.87934 5.28026L5.77409 1.96452C5.61511 1.48801 5.169 1.16673 4.66667 1.16699H1.16667ZM9.33333 23.3337C8.04467 23.3337 7 24.3783 7 25.667C7 26.9557 8.04467 28.0003 9.33333 28.0003C10.622 28.0003 11.6667 26.9557 11.6667 25.667C11.6667 24.3783 10.622 23.3337 9.33333 23.3337ZM23.3333 23.3337C22.0447 23.3337 21 24.3783 21 25.667C21 26.9557 22.0447 28.0003 23.3333 28.0003C24.622 28.0003 25.6667 26.9557 25.6667 25.667C25.6667 24.3783 24.622 23.3337 23.3333 23.3337Z" fill="url(#paint0_linear_43_1854)"/>
</g>
<defs>
<linearGradient id="paint0_linear_43_1854" x1="0" y1="14.5837" x2="27.6119" y2="14.5837" gradientUnits="userSpaceOnUse">
<stop stop-color="#E24854"/>
<stop offset="1" stop-color="#D13C48"/>
</linearGradient>
<clipPath id="clip0_43_1854">
<rect width="28" height="28" fill="white"/>
</clipPath>
</defs>
</svg>
