<svg width="12" height="7" viewBox="0 0 12 7" fill="none" xmlns="http://www.w3.org/2000/svg">
<path d="M6.85049 6.6577L11.6623 1.98129C11.8814 1.7608 12.0027 1.46548 12 1.15894C11.9972 0.852409 11.8707 0.559183 11.6477 0.342422C11.4246 0.125661 11.1229 0.00270786 10.8075 4.4143e-05C10.4921 -0.00261958 10.1882 0.115219 9.96134 0.328181L6 4.17804L2.03866 0.32818C1.81178 0.115219 1.50792 -0.00261997 1.1925 4.37228e-05C0.877092 0.00270741 0.575376 0.125661 0.352338 0.342422C0.1293 0.559183 0.00278639 0.852408 4.55404e-05 1.15894C-0.00269531 1.46548 0.118556 1.7608 0.337684 1.98129L5.14951 6.6577C5.3751 6.87688 5.68102 7 6 7C6.31898 7 6.6249 6.87688 6.85049 6.6577Z" fill="#E04753"/>
</svg>
