<svg width="28" height="28" viewBox="0 0 28 28" fill="none" xmlns="http://www.w3.org/2000/svg">
<g clip-path="url(#clip0_43_1866)">
<path d="M28 9.88235V6.58824H26.3529V8.23529H23.8824V4.11765H19.7647V1.64706H20.5882V0H18.1176V4.11765H16.4706V0.823529H14.8235V4.11765H13.1765V0.823529H11.5294V4.11765V4.94118V10.7059H14.1647C14.5046 9.74735 15.42 9.05882 16.4936 9.05882C17.856 9.05882 18.9642 10.1671 18.9642 11.5294C18.9642 12.8916 17.856 14 16.4936 14C15.42 14 14.5047 13.3115 14.1647 12.3529H9.88235V4.94118V4.11765V0H6.58824V1.64706H8.23529V4.11765H4.11765V8.23529H1.64706V6.58824H0V9.88235H4.11765V11.5843H0.823529V13.2314H4.11765V14.8235H0.823529V16.4706H4.11765V18.1176H0V21.4118H1.64706V19.7647H4.11765V23.8824H8.23529V26.3529H6.58824V28H9.88235V23.8824H11.5294V27.1765H13.1765V23.8824H14.8235V27.1765H16.4706V23.8824V23.0588V18.9412H12.2113C11.8713 19.8997 10.956 20.5882 9.88235 20.5882C8.52013 20.5882 7.41176 19.48 7.41176 18.1176C7.41176 16.7554 8.52013 15.6471 9.88235 15.6471C10.956 15.6471 11.8713 16.3356 12.2113 17.2941H18.1176V23.0588V23.8824V28H21.4118V26.3529H19.7647V23.8824H23.8824V19.7647H26.3529V21.4118H28V18.1176H23.8824V16.4706H27.1765V14.8235H23.8824V13.2314H27.1765V11.5843H23.8824V9.88235H28Z" fill="url(#paint0_linear_43_1866)"/>
<path d="M16.4925 12.3512C16.9473 12.3512 17.316 11.9825 17.316 11.5276C17.316 11.0728 16.9473 10.7041 16.4925 10.7041C16.0377 10.7041 15.6689 11.0728 15.6689 11.5276C15.6689 11.9825 16.0377 12.3512 16.4925 12.3512Z" fill="url(#paint1_linear_43_1866)"/>
<path d="M9.9041 18.9391C10.3589 18.9391 10.7276 18.5703 10.7276 18.1155C10.7276 17.6607 10.3589 17.292 9.9041 17.292C9.44927 17.292 9.08057 17.6607 9.08057 18.1155C9.08057 18.5703 9.44927 18.9391 9.9041 18.9391Z" fill="url(#paint2_linear_43_1866)"/>
</g>
<defs>
<linearGradient id="paint0_linear_43_1866" x1="0" y1="14" x2="28" y2="14" gradientUnits="userSpaceOnUse">
<stop stop-color="#E24854"/>
<stop offset="1" stop-color="#D13C48"/>
</linearGradient>
<linearGradient id="paint1_linear_43_1866" x1="15.6689" y1="11.5276" x2="17.316" y2="11.5276" gradientUnits="userSpaceOnUse">
<stop stop-color="#E24854"/>
<stop offset="1" stop-color="#D13C48"/>
</linearGradient>
<linearGradient id="paint2_linear_43_1866" x1="9.08057" y1="18.1155" x2="10.7276" y2="18.1155" gradientUnits="userSpaceOnUse">
<stop stop-color="#E24854"/>
<stop offset="1" stop-color="#D13C48"/>
</linearGradient>
<clipPath id="clip0_43_1866">
<rect width="28" height="28" fill="white"/>
</clipPath>
</defs>
</svg>
