<svg width="28" height="28" viewBox="0 0 28 28" fill="none" xmlns="http://www.w3.org/2000/svg">
<g clip-path="url(#clip0_43_1747)">
<path d="M10.3767 3.761C10.3286 3.64451 10.3548 3.51928 10.4434 3.42904L13.7843 0.0881836C13.9035 -0.0293945 14.096 -0.0293945 14.2152 0.0881836L17.5561 3.42904C17.6447 3.51873 17.6709 3.64451 17.6228 3.761C17.5747 3.87748 17.4664 3.94857 17.3406 3.94857H15.5983C15.4293 3.94857 15.2931 4.08639 15.2931 4.25373V10.7167L13.9997 11.4643L12.7069 10.7172V4.25428C12.7069 4.08693 12.5708 3.94912 12.4018 3.94912H10.6594C10.5336 3.94857 10.4248 3.87748 10.3767 3.761ZM3.06771 11.794C3.10052 11.9165 3.19787 12.0019 3.32201 12.0172C3.44615 12.0341 3.56208 11.9767 3.62607 11.8684L4.49724 10.3585C4.58091 10.213 4.76849 10.1633 4.91286 10.2469L10.5107 13.4773L13.0963 11.9844L6.20568 8.00639C6.0613 7.92271 6.01044 7.73514 6.09576 7.59076L6.96693 6.08084C7.02872 5.97092 7.02107 5.84186 6.94505 5.74287C6.8674 5.64389 6.7449 5.60178 6.62404 5.63459L2.06037 6.85795C1.8974 6.90115 1.80169 7.0685 1.8449 7.22982L3.06771 11.794ZM6.09521 20.4084C6.0099 20.2629 6.0613 20.0765 6.20513 19.9928C11.8325 16.7438 17.4593 13.4943 23.0866 10.2469C23.231 10.1633 23.4186 10.213 23.5022 10.3585L24.3734 11.8684C24.4368 11.9767 24.5533 12.0341 24.6775 12.0172C24.8016 12.0019 24.899 11.9165 24.9318 11.794L26.1551 7.23037C26.1983 7.06904 26.1026 6.9017 25.9397 6.8585L21.376 5.63514C21.2551 5.60232 21.1326 5.64443 21.055 5.74342C20.979 5.8424 20.9713 5.97146 21.0331 6.08139L21.9043 7.59131C21.9879 7.73568 21.9382 7.92326 21.7943 8.00693C16.167 11.2548 10.5397 14.5038 4.91286 17.7528C4.76849 17.8365 4.58091 17.7867 4.49724 17.6412L3.62607 16.1313C3.56263 16.023 3.44615 15.9656 3.32201 15.9809C3.19787 15.9979 3.10052 16.0832 3.06771 16.204L1.84435 20.7677C1.80115 20.9307 1.89685 21.098 2.05982 21.1412L6.62349 22.3646C6.74435 22.3974 6.86685 22.3553 6.94451 22.2563C7.02052 22.1557 7.02818 22.0266 6.96638 21.9183L6.09521 20.4084ZM17.3406 24.0501H15.5983C15.4293 24.0501 15.2931 23.9139 15.2931 23.746V17.2819L13.9997 16.536L12.7069 17.283V23.746C12.7069 23.9133 12.5708 24.0501 12.4018 24.0501H10.6594C10.5336 24.0501 10.4254 24.1212 10.3772 24.2376C10.3291 24.3541 10.3554 24.481 10.444 24.5696L13.7848 27.9121C13.904 28.0297 14.0965 28.0297 14.2158 27.9121L17.5566 24.5696C17.6452 24.481 17.6715 24.3541 17.6233 24.2376C17.5752 24.1212 17.4658 24.0501 17.3406 24.0501ZM24.9318 16.2046C24.899 16.0837 24.8016 15.9984 24.6775 15.9815C24.5533 15.9662 24.4374 16.0236 24.3734 16.1319L23.5022 17.6418C23.4186 17.7872 23.231 17.837 23.0866 17.7533L17.4888 14.5213L14.9032 16.0143L21.7938 19.9939C21.9382 20.0776 21.9874 20.2635 21.9037 20.4095L21.0326 21.9194C20.9691 22.0277 20.9784 22.1568 21.0544 22.2574C21.1321 22.3564 21.2546 22.3985 21.3754 22.3657L25.9391 21.1423C26.1021 21.0991 26.1978 20.9318 26.1546 20.7688L24.9318 16.2046Z" fill="url(#paint0_linear_43_1747)"/>
</g>
<defs>
<linearGradient id="paint0_linear_43_1747" x1="1.83398" y1="14.0001" x2="26.1655" y2="14.0001" gradientUnits="userSpaceOnUse">
<stop stop-color="#E24854"/>
<stop offset="1" stop-color="#D13C48"/>
</linearGradient>
<clipPath id="clip0_43_1747">
<rect width="28" height="28" fill="white"/>
</clipPath>
</defs>
</svg>
