<svg width="28" height="28" viewBox="0 0 28 28" fill="none" xmlns="http://www.w3.org/2000/svg">
<path d="M19.2827 8.24807C18.2038 8.24807 17.3227 7.36694 17.3227 6.28807V1.13281H6.46453C5.72323 1.13281 5.12207 1.73397 5.12207 2.47512V16.6892H14.3457C15.2103 16.6892 15.9104 17.3934 15.9104 18.2581V22.3881C15.9104 23.2528 15.2103 23.957 14.3457 23.957H5.12207V25.5258C5.12207 26.2669 5.72323 26.8681 6.46453 26.8681H23.0957C23.8369 26.8681 24.438 26.2669 24.438 25.5258V8.24807H19.2827ZM9.50933 9.28231H14.7798C14.9503 9.28231 15.0887 9.42063 15.0887 9.59113C15.0887 9.76163 14.9503 9.89995 14.7798 9.89995H9.50933C9.33884 9.89995 9.20051 9.76163 9.20051 9.59113C9.20051 9.42063 9.33884 9.28231 9.50933 9.28231ZM20.0506 14.7008H9.50933C9.33884 14.7008 9.20051 14.5625 9.20051 14.392C9.20051 14.2215 9.33884 14.0831 9.50933 14.0831H20.0506C20.221 14.0831 20.3594 14.2215 20.3594 14.392C20.3594 14.5625 20.221 14.7008 20.0506 14.7008ZM20.0506 12.3002H9.50933C9.33884 12.3002 9.20051 12.1618 9.20051 11.9913C9.20051 11.8209 9.33884 11.6825 9.50933 11.6825H20.0506C20.221 11.6825 20.3594 11.8209 20.3594 11.9913C20.3594 12.1618 20.221 12.3002 20.0506 12.3002Z" fill="url(#paint0_linear_43_1784)"/>
<path d="M19.2825 7.62786H24.4366L17.9414 1.13281V6.28686C17.9414 7.02745 18.5418 7.62786 19.2825 7.62786Z" fill="url(#paint1_linear_43_1784)"/>
<path d="M15.2942 22.3884V18.2575C15.2942 17.7329 14.869 17.3076 14.3444 17.3076H4.38505C3.93026 17.3076 3.56152 17.6763 3.56152 18.1311V22.5148C3.56152 22.9696 3.93026 23.3383 4.38505 23.3383H14.3444C14.869 23.3383 15.2942 22.9131 15.2942 22.3884ZM6.72355 20.5424C6.72817 20.616 6.74245 20.684 6.76657 20.7467C6.7905 20.8098 6.82488 20.8641 6.86951 20.9099C6.91415 20.9558 6.96964 20.9924 7.03599 21.0197C7.10254 21.0475 7.18035 21.0611 7.26962 21.0611C7.35888 21.0611 7.43669 21.0503 7.50304 21.0286C7.56939 21.0069 7.62508 20.9787 7.66972 20.9445C7.71436 20.91 7.74914 20.8709 7.77447 20.8275C7.7996 20.7841 7.81569 20.7395 7.82252 20.6936C7.82694 20.6639 7.83901 20.6417 7.85851 20.6269C7.87801 20.612 7.89912 20.6043 7.92205 20.6043H8.20031C8.22544 20.6043 8.24776 20.6128 8.26726 20.6301C8.28656 20.6474 8.29521 20.6695 8.293 20.6972C8.28616 20.7909 8.26264 20.885 8.22263 20.9787C8.18241 21.0724 8.12129 21.1572 8.03886 21.2328C7.95642 21.3084 7.85228 21.37 7.72642 21.4182C7.60035 21.4665 7.44815 21.4902 7.26961 21.4902C7.11158 21.4902 6.97185 21.4669 6.85061 21.4198C6.72917 21.3732 6.62623 21.3076 6.54158 21.2244C6.45674 21.1408 6.39099 21.0406 6.34415 20.9236C6.2971 20.807 6.26915 20.6799 6.2599 20.5424C6.25528 20.4556 6.25307 20.3595 6.25307 20.2541C6.25307 20.1487 6.25528 20.0526 6.2599 19.9658C6.26915 19.8283 6.2971 19.7012 6.34415 19.5846C6.39099 19.4676 6.45674 19.3674 6.54158 19.2838C6.62623 19.2006 6.72917 19.135 6.85061 19.0884C6.97185 19.0413 7.11158 19.0176 7.26961 19.0176C7.44815 19.0176 7.60035 19.0417 7.72642 19.09C7.85228 19.1378 7.95642 19.1998 8.03886 19.2754C8.12129 19.351 8.18241 19.4362 8.22263 19.5311C8.26264 19.6264 8.28616 19.7197 8.293 19.811C8.29521 19.8387 8.28656 19.8608 8.26726 19.8781C8.24776 19.895 8.22544 19.9039 8.20031 19.9039H7.92205C7.89913 19.9039 7.87741 19.8962 7.8569 19.8813C7.8362 19.8665 7.82353 19.8443 7.8191 19.8146C7.81227 19.7687 7.79619 19.7241 7.77105 19.6807C7.74572 19.6372 7.71134 19.5982 7.66791 19.5637C7.62448 19.5295 7.56939 19.5013 7.50304 19.4796C7.43669 19.4579 7.35888 19.4471 7.26962 19.4471C7.18035 19.4471 7.10254 19.4607 7.03599 19.4881C6.96964 19.5158 6.91415 19.5524 6.86951 19.5982C6.82488 19.6441 6.7905 19.6988 6.76657 19.7631C6.74245 19.827 6.72817 19.8946 6.72355 19.9658C6.71892 20.0526 6.71671 20.1487 6.71671 20.2541C6.71671 20.3595 6.71892 20.4556 6.72355 20.5424ZM10.6625 20.5082C10.6534 20.6526 10.6265 20.7829 10.5818 20.8995C10.5372 21.0165 10.4737 21.1162 10.3912 21.1983C10.3088 21.2807 10.2063 21.3442 10.0838 21.3889C9.96137 21.4335 9.81781 21.456 9.65294 21.456H8.78739C8.76226 21.456 8.74055 21.4468 8.72225 21.4287C8.70396 21.4102 8.69471 21.3885 8.69471 21.3631V19.1447C8.69471 19.1197 8.70396 19.098 8.72225 19.0795C8.74055 19.0614 8.76226 19.0522 8.78739 19.0522H9.63565C9.80514 19.0522 9.95212 19.0743 10.077 19.1189C10.2018 19.1636 10.306 19.2271 10.3894 19.3095C10.4731 19.392 10.5372 19.4917 10.5818 19.6083C10.6265 19.7253 10.6534 19.8556 10.6625 20C10.6717 20.1693 10.6717 20.339 10.6625 20.5082ZM12.8019 21.3631C12.8019 21.3885 12.7926 21.4102 12.7744 21.4287C12.7561 21.4468 12.7343 21.456 12.7092 21.456H11.2049C11.1798 21.456 11.1581 21.4468 11.1398 21.4287C11.1215 21.4102 11.1122 21.3885 11.1122 21.3631V19.1447C11.1122 19.1197 11.1215 19.098 11.1398 19.0795C11.1581 19.0614 11.1798 19.0522 11.2049 19.0522H11.4832C11.5083 19.0522 11.53 19.0614 11.5483 19.0795C11.5666 19.098 11.5759 19.1197 11.5759 19.1447V21.0266H12.7092C12.7343 21.0266 12.7561 21.0358 12.7744 21.0543C12.7926 21.0724 12.8019 21.0941 12.8019 21.1194L12.8019 21.3631Z" fill="url(#paint2_linear_43_1784)"/>
<path d="M10.0493 19.631C10.0024 19.584 9.94353 19.5474 9.87256 19.5213C9.80159 19.4947 9.71674 19.4814 9.61842 19.4814H9.1582V21.0268H9.63551C9.72941 21.0268 9.81063 21.0139 9.8794 20.9874C9.94816 20.9612 10.0053 20.925 10.0511 20.8792C10.0969 20.8334 10.1317 20.7787 10.1558 20.7143C10.18 20.6504 10.194 20.5816 10.1987 20.5084C10.2079 20.3392 10.2079 20.1695 10.1987 20.0002C10.194 19.927 10.18 19.8586 10.1558 19.7959C10.1317 19.7328 10.0963 19.6781 10.0493 19.631Z" fill="url(#paint3_linear_43_1784)"/>
<defs>
<linearGradient id="paint0_linear_43_1784" x1="5.12207" y1="14.0005" x2="24.438" y2="14.0005" gradientUnits="userSpaceOnUse">
<stop stop-color="#E24854"/>
<stop offset="1" stop-color="#D13C48"/>
</linearGradient>
<linearGradient id="paint1_linear_43_1784" x1="17.9414" y1="4.38033" x2="24.4366" y2="4.38033" gradientUnits="userSpaceOnUse">
<stop stop-color="#E24854"/>
<stop offset="1" stop-color="#D13C48"/>
</linearGradient>
<linearGradient id="paint2_linear_43_1784" x1="3.56152" y1="20.323" x2="15.2942" y2="20.323" gradientUnits="userSpaceOnUse">
<stop stop-color="#E24854"/>
<stop offset="1" stop-color="#D13C48"/>
</linearGradient>
<linearGradient id="paint3_linear_43_1784" x1="9.1582" y1="20.2541" x2="10.2056" y2="20.2541" gradientUnits="userSpaceOnUse">
<stop stop-color="#E24854"/>
<stop offset="1" stop-color="#D13C48"/>
</linearGradient>
</defs>
</svg>
