<svg width="20" height="20" viewBox="0 0 20 20" fill="none" xmlns="http://www.w3.org/2000/svg">
<path d="M17.5001 15.833H2.50008C2.27907 15.833 2.06711 15.9208 1.91083 16.0771C1.75455 16.2334 1.66675 16.4453 1.66675 16.6663C1.66675 16.8874 1.75455 17.0993 1.91083 17.2556C2.06711 17.4119 2.27907 17.4997 2.50008 17.4997H17.5001C17.7211 17.4997 17.9331 17.4119 18.0893 17.2556C18.2456 17.0993 18.3334 16.8874 18.3334 16.6663C18.3334 16.4453 18.2456 16.2334 18.0893 16.0771C17.9331 15.9208 17.7211 15.833 17.5001 15.833Z" fill="#767676"/>
<path d="M9.99999 1.66699C9.77898 1.66699 9.56702 1.75479 9.41074 1.91107C9.25446 2.06735 9.16666 2.27931 9.16666 2.50033V11.3253L6.42499 8.57533C6.26807 8.41841 6.05524 8.33025 5.83333 8.33025C5.61141 8.33025 5.39858 8.41841 5.24166 8.57533C5.08474 8.73225 4.99658 8.94508 4.99658 9.16699C4.99658 9.38891 5.08474 9.60174 5.24166 9.75866L9.40833 13.9253C9.48579 14.0034 9.57796 14.0654 9.67951 14.1077C9.78106 14.15 9.88998 14.1718 9.99999 14.1718C10.11 14.1718 10.2189 14.15 10.3205 14.1077C10.422 14.0654 10.5142 14.0034 10.5917 13.9253L14.7583 9.75866C14.836 9.68096 14.8977 9.58872 14.9397 9.4872C14.9818 9.38568 15.0034 9.27688 15.0034 9.16699C15.0034 9.05711 14.9818 8.9483 14.9397 8.84679C14.8977 8.74527 14.836 8.65303 14.7583 8.57533C14.6806 8.49763 14.5884 8.43599 14.4869 8.39394C14.3853 8.35189 14.2765 8.33025 14.1667 8.33025C14.0568 8.33025 13.948 8.35189 13.8465 8.39394C13.7449 8.43599 13.6527 8.49763 13.575 8.57533L10.8333 11.3253V2.50033C10.8333 2.27931 10.7455 2.06735 10.5892 1.91107C10.433 1.75479 10.221 1.66699 9.99999 1.66699Z" fill="#767676"/>
</svg>
