<svg width="28" height="28" viewBox="0 0 28 28" fill="none" xmlns="http://www.w3.org/2000/svg">
<path d="M17.3673 14.9443L15.4614 16.8566C14.6886 17.6322 13.3288 17.6489 12.5392 16.8566L10.6333 14.9443L3.78809 21.8118C4.04289 21.9296 4.32382 21.9999 4.62249 21.9999H23.3782C23.6768 21.9999 23.9577 21.9297 24.2124 21.8118L17.3673 14.9443Z" fill="#E04753"/>
<path d="M23.3781 6H4.6224C4.32373 6 4.0428 6.07031 3.78809 6.18813L11.1027 13.527C11.1032 13.5275 11.1037 13.5276 11.1042 13.528C11.1047 13.5285 11.1048 13.5292 11.1048 13.5292L13.4832 15.9154C13.7358 16.1681 14.2648 16.1681 14.5174 15.9154L16.8953 13.5296C16.8953 13.5296 16.8959 13.5285 16.8963 13.528C16.8963 13.528 16.8974 13.5275 16.8979 13.527L24.2123 6.18809C23.9576 6.07022 23.6767 6 23.3781 6Z" fill="#E04753"/>
<path d="M2.83478 7.12109C2.70296 7.38767 2.62207 7.68359 2.62207 8.00057V20.0006C2.62207 20.3176 2.70287 20.6135 2.83474 20.8801L9.6918 14.0008L2.83478 7.12109Z" fill="#E04753"/>
<path d="M25.1646 7.12109L18.3076 14.0009L25.1646 20.8803C25.2964 20.6137 25.3773 20.3178 25.3773 20.0007V8.00065C25.3773 7.68359 25.2964 7.38767 25.1646 7.12109Z" fill="#E04753"/>
</svg>
