<svg width="28" height="28" viewBox="0 0 28 28" fill="none" xmlns="http://www.w3.org/2000/svg">
<g clip-path="url(#clip0_43_1834)">
<path d="M27.3255 13.3123L25.8853 10.5839C25.7486 10.325 25.3974 10.1132 25.1046 10.1132H21.6628C21.3702 10.1132 21.1307 10.3527 21.1307 10.6454V15.2287H20.7296V10.6961C20.7296 10.528 20.6066 10.3876 20.4463 10.3596V9.21703L19.7058 8.47656L19.4967 8.68565L20.1506 9.33952V10.3597C19.9902 10.3877 19.8672 10.5281 19.8672 10.6961V15.2287H0.567118V17.028H0.302863C0.0862202 17.028 0.0862202 17.8157 0.302863 17.8157H2.69757V18.2016H3.16771C3.15005 18.0948 3.14045 17.9853 3.14045 17.8736C3.14045 16.7683 4.03975 15.8689 5.14513 15.8689C6.25055 15.8689 7.14999 16.7683 7.14999 17.8736C7.14999 17.9853 7.14035 18.0948 7.12273 18.2016H7.1951H7.59287H7.66524C7.64758 18.0948 7.63798 17.9853 7.63798 17.8736C7.63798 16.7683 8.53728 15.8689 9.64266 15.8689C10.7481 15.8689 11.6475 16.7683 11.6475 17.8736C11.6475 17.9853 11.6379 18.0948 11.6202 18.2016H12.0904V17.8157H21.9321V18.2016H22.4023C22.3846 18.0948 22.375 17.9853 22.375 17.8736C22.375 16.7683 23.2743 15.8689 24.3797 15.8689C25.4851 15.8689 26.3846 16.7683 26.3846 17.8736C26.3846 17.9853 26.3749 18.0948 26.3573 18.2016H26.8274V17.8157H27.8377C28.0543 17.8157 28.0543 17.028 27.8377 17.028H27.5742V14.3152C27.574 14.0225 27.4623 13.5711 27.3255 13.3123ZM22.3744 10.6454V13.1856H21.6628V10.6454H22.3744ZM24.0979 14.029H22.8933V13.7451H24.0979V14.029ZM22.6584 13.1856V10.6454H25.1046C25.1994 10.6454 25.3702 10.7486 25.4146 10.8323L26.6568 13.1856H22.6584Z" fill="#767676"/>
<path d="M0 14.1377H19.3227V14.81H0V14.1377Z" fill="#767676"/>
<path d="M6.79509 17.8735C6.79509 16.9623 6.05647 16.2236 5.14516 16.2236C4.23399 16.2236 3.49524 16.9623 3.49524 17.8735C3.49524 18.7847 4.23399 19.5234 5.14516 19.5234C6.05652 19.5234 6.79509 18.7847 6.79509 17.8735ZM5.14507 18.8137C4.62671 18.8137 4.20493 18.392 4.20493 17.8734C4.20493 17.355 4.62671 16.9333 5.14507 16.9333C5.66361 16.9333 6.0854 17.355 6.0854 17.8734C6.08545 18.392 5.66366 18.8137 5.14507 18.8137Z" fill="#767676"/>
<path d="M5.48555 17.8735C5.48555 17.6856 5.33321 17.5332 5.14522 17.5332C4.95727 17.5332 4.80493 17.6855 4.80493 17.8735C4.80493 18.0615 4.95727 18.2139 5.14522 18.2139C5.33321 18.2138 5.48555 18.0615 5.48555 17.8735Z" fill="#767676"/>
<path d="M11.2926 17.8735C11.2926 16.9623 10.554 16.2236 9.64272 16.2236C8.73155 16.2236 7.9928 16.9623 7.9928 17.8735C7.9928 18.7847 8.73155 19.5234 9.64272 19.5234C10.554 19.5234 11.2926 18.7847 11.2926 17.8735ZM9.64263 18.8137C9.12423 18.8137 8.70248 18.392 8.70248 17.8734C8.70248 17.355 9.12423 16.9333 9.64263 16.9333C10.1612 16.9333 10.583 17.355 10.583 17.8734C10.583 18.392 10.1612 18.8137 9.64263 18.8137Z" fill="#767676"/>
<path d="M9.98299 17.8735C9.98299 17.6856 9.83065 17.5332 9.6427 17.5332C9.45476 17.5332 9.30237 17.6855 9.30237 17.8735C9.30237 18.0615 9.45476 18.2139 9.6427 18.2139C9.83065 18.2138 9.98299 18.0615 9.98299 17.8735Z" fill="#767676"/>
<path d="M26.0296 17.8735C26.0296 16.9623 25.291 16.2236 24.3797 16.2236C23.4685 16.2236 22.7297 16.9623 22.7297 17.8735C22.7297 18.7847 23.4685 19.5234 24.3797 19.5234C25.291 19.5234 26.0296 18.7847 26.0296 17.8735ZM24.3796 18.8137C23.8612 18.8137 23.4394 18.392 23.4394 17.8734C23.4394 17.355 23.8612 16.9333 24.3796 16.9333C24.8981 16.9333 25.3199 17.355 25.3199 17.8734C25.3199 18.392 24.8982 18.8137 24.3796 18.8137Z" fill="#767676"/>
<path d="M24.72 17.8735C24.72 17.6856 24.5677 17.5332 24.3797 17.5332C24.1918 17.5332 24.0394 17.6855 24.0394 17.8735C24.0394 18.0615 24.1918 18.2139 24.3797 18.2139C24.5677 18.2138 24.72 18.0615 24.72 17.8735Z" fill="#767676"/>
</g>
<defs>
<clipPath id="clip0_43_1834">
<rect width="28" height="28" fill="white"/>
</clipPath>
</defs>
</svg>
