<svg width="28" height="28" viewBox="0 0 28 28" fill="none" xmlns="http://www.w3.org/2000/svg">
<path d="M27.1797 20.6992H0.820312C0.367281 20.6992 0 21.0665 0 21.5195C0 23.4827 1.59146 25.0742 3.55469 25.0742H24.4453C26.4085 25.0742 28 23.4828 28 21.5195C28 21.0665 27.6327 20.6992 27.1797 20.6992Z" fill="url(#paint0_linear_43_1856)"/>
<path d="M16.1875 5.55012V5.11328C16.1875 3.90518 15.2081 2.92578 14 2.92578C12.7919 2.92578 11.8125 3.90518 11.8125 5.11328V5.55012C12.5302 5.44212 13.2608 5.38672 14 5.38672C14.7392 5.38672 15.4698 5.44212 16.1875 5.55012Z" fill="url(#paint1_linear_43_1856)"/>
<path d="M23.0875 10.7915C20.6602 8.36413 17.4329 7.02734 14.0001 7.02734C10.5673 7.02734 7.34003 8.36413 4.91267 10.7915C2.67972 13.0244 1.37056 15.9345 1.17505 19.0586H26.8251C26.6296 15.9345 25.3205 13.0244 23.0875 10.7915Z" fill="url(#paint2_linear_43_1856)"/>
<defs>
<linearGradient id="paint0_linear_43_1856" x1="0" y1="22.8867" x2="28" y2="22.8867" gradientUnits="userSpaceOnUse">
<stop stop-color="#E24854"/>
<stop offset="1" stop-color="#D13C48"/>
</linearGradient>
<linearGradient id="paint1_linear_43_1856" x1="11.8125" y1="4.23795" x2="16.1875" y2="4.23795" gradientUnits="userSpaceOnUse">
<stop stop-color="#E24854"/>
<stop offset="1" stop-color="#D13C48"/>
</linearGradient>
<linearGradient id="paint2_linear_43_1856" x1="1.17505" y1="13.043" x2="26.8251" y2="13.043" gradientUnits="userSpaceOnUse">
<stop stop-color="#E24854"/>
<stop offset="1" stop-color="#D13C48"/>
</linearGradient>
</defs>
</svg>
