<svg width="28" height="28" viewBox="0 0 28 28" fill="none" xmlns="http://www.w3.org/2000/svg">
<g clip-path="url(#clip0_43_1749)">
<path d="M11.5404 21.1212C12.434 20.2881 12.5716 18.9833 11.8477 18.2067C11.1238 17.4302 9.81253 17.476 8.91888 18.309C8.02523 19.1421 7.88762 20.4469 8.61152 21.2235C9.33542 22 10.6467 21.9542 11.5404 21.1212Z" fill="url(#paint0_linear_43_1749)"/>
<path d="M23.3646 21.1222C24.2582 20.2891 24.3958 18.9843 23.6719 18.2077C22.948 17.4311 21.6367 17.4769 20.7431 18.31C19.8494 19.143 19.7118 20.4479 20.4357 21.2244C21.1596 22.001 22.4709 21.9552 23.3646 21.1222Z" fill="url(#paint1_linear_43_1749)"/>
<path d="M2.16348 10.926C2.16348 10.4103 1.74541 9.99219 1.22969 9.99219C0.71397 9.99219 0.295898 10.4103 0.295898 10.926C0.295898 11.4417 0.71397 11.8598 1.22969 11.8598C1.74541 11.8598 2.16348 11.4417 2.16348 10.926Z" fill="url(#paint2_linear_43_1749)"/>
<path d="M18.9486 19.5196C19.2805 17.879 20.8304 16.5752 22.4961 16.5752C24.1001 16.5752 25.2562 17.7844 25.2245 19.3391C26.9592 19.3845 27.4421 17.1002 27.4421 17.1002C27.5881 16.4615 27.8063 15.2162 27.9889 13.994C28.0488 13.6166 28.0028 13.23 27.8561 12.8773C27.4026 11.8187 26.8546 10.8033 26.2187 9.8432C25.6171 8.94578 24.6082 8.41422 23.4564 8.39508C22.7696 8.38414 22.0953 8.37758 21.5861 8.37758L21.5818 8.3732C21.5161 7.27508 20.7155 6.43398 19.5917 6.33336C18.8605 6.26828 15.9643 6.2207 14.5741 6.2207C14.0218 6.2207 13.2293 6.22836 12.4276 6.24148V6.2382H12.4211H2.78184C2.65915 6.23813 2.53766 6.26224 2.4243 6.30916C2.31094 6.35607 2.20794 6.42487 2.12119 6.51162C2.03444 6.59837 1.96564 6.70137 1.91873 6.81473C1.87181 6.92809 1.8477 7.04958 1.84777 7.17227V7.17664C1.84777 7.42321 1.94572 7.65968 2.12007 7.83403C2.29442 8.00838 2.53089 8.10633 2.77746 8.10633H4.72051C4.95448 8.12358 5.17327 8.22865 5.33302 8.40046C5.49276 8.57227 5.58164 8.79813 5.58184 9.03273V9.03766C5.5822 9.16046 5.55834 9.28212 5.51163 9.39569C5.46491 9.50926 5.39627 9.61251 5.30961 9.69952C5.22295 9.78653 5.11999 9.8556 5.00661 9.90278C4.89324 9.94995 4.77167 9.97431 4.64887 9.97445H3.65246C3.40488 9.97445 3.16743 10.0728 2.99237 10.2479C2.8173 10.4229 2.71895 10.6604 2.71895 10.908C2.71887 11.0306 2.74297 11.1521 2.78985 11.2654C2.83673 11.3787 2.90548 11.4817 2.99217 11.5684C3.07886 11.6552 3.1818 11.724 3.29509 11.7709C3.40839 11.8179 3.52982 11.842 3.65246 11.842H4.64887C4.8966 11.842 5.13418 11.9404 5.30935 12.1156C5.48452 12.2908 5.58293 12.5284 5.58293 12.7761C5.58293 13.0238 5.48452 13.2614 5.30935 13.4366C5.13418 13.6117 4.8966 13.7102 4.64887 13.7102H0.921367C0.673733 13.7102 0.436234 13.8085 0.261079 13.9835C0.0859235 14.1586 -0.0125503 14.396 -0.0126953 14.6437C-0.0126953 14.8914 0.0857145 15.129 0.260885 15.3042C0.436056 15.4793 0.673638 15.5777 0.921367 15.5777H4.64887C4.8966 15.5777 5.13418 15.6761 5.30935 15.8513C5.48452 16.0265 5.58293 16.2641 5.58293 16.5118C5.58264 16.7593 5.4841 16.9966 5.30896 17.1716C5.13382 17.3465 4.89641 17.4448 4.64887 17.4448H3.49605C3.24847 17.4448 3.01103 17.5431 2.83596 17.7182C2.66089 17.8933 2.56254 18.1307 2.56254 18.3783C2.56254 18.6259 2.66087 18.8634 2.83593 19.0386C3.01098 19.2137 3.24842 19.3122 3.49605 19.3123L7.17434 19.3096L7.48004 18.5478C8.10621 17.3928 9.35199 16.5747 10.6711 16.5747C12.3374 16.5747 13.5208 17.8795 13.3907 19.5212H18.948M9.68395 10.4092H8.43051C8.42932 10.4093 8.4282 10.4098 8.42732 10.4106C8.42643 10.4114 8.42582 10.4124 8.42559 10.4136L8.3102 11.2339C8.31003 11.2346 8.31001 11.2353 8.31015 11.2359C8.3103 11.2366 8.31059 11.2372 8.31101 11.2377C8.31144 11.2383 8.31198 11.2387 8.3126 11.239C8.31322 11.2393 8.31389 11.2394 8.31457 11.2394H9.24754C9.29333 11.2381 9.33884 11.247 9.38074 11.2655C9.42265 11.284 9.45989 11.3117 9.48976 11.3464C9.51962 11.3812 9.54136 11.4221 9.55338 11.4663C9.56541 11.5105 9.56741 11.5569 9.55926 11.602C9.54327 11.701 9.49324 11.7915 9.41778 11.8576C9.34232 11.9238 9.24615 11.9616 9.14582 11.9645H8.21176C8.21062 11.9645 8.20951 11.9649 8.20861 11.9656C8.20772 11.9663 8.20709 11.9673 8.20684 11.9684L8.03949 13.16C8.02351 13.2591 7.97348 13.3495 7.89801 13.4157C7.82255 13.4819 7.72638 13.5197 7.62606 13.5226C7.58028 13.5239 7.53478 13.515 7.4929 13.4964C7.45101 13.4779 7.4138 13.4503 7.38397 13.4155C7.35414 13.3808 7.33246 13.3398 7.32051 13.2956C7.30856 13.2514 7.30663 13.205 7.31488 13.16L7.7491 10.0691C7.76631 9.96441 7.81936 9.869 7.89917 9.79917C7.97899 9.72933 8.0806 9.68941 8.1866 9.68625H9.78512C9.8309 9.68493 9.87639 9.69386 9.91827 9.71238C9.96016 9.7309 9.99738 9.75855 10.0272 9.7933C10.057 9.82806 10.0787 9.86904 10.0907 9.91325C10.1026 9.95746 10.1045 10.0038 10.0963 10.0488C10.0801 10.1474 10.0301 10.2373 9.95483 10.3031C9.8796 10.3688 9.78383 10.4064 9.68395 10.4092ZM13.0341 9.93234C13.1643 10.0479 13.2559 10.2006 13.2966 10.3698C13.3421 10.5616 13.3495 10.7604 13.3185 10.955C13.2805 11.2578 13.1565 11.5434 12.9614 11.778C12.8422 11.919 12.6908 12.0291 12.52 12.0991C12.5193 12.0999 12.5188 12.101 12.5188 12.1021C12.5188 12.1032 12.5193 12.1043 12.52 12.1051L12.8307 13.0014C12.9143 13.242 12.6994 13.5226 12.432 13.5226H12.4145C12.3496 13.5245 12.2858 13.5057 12.2323 13.4689C12.1788 13.4321 12.1384 13.3793 12.117 13.318L11.7413 12.2243C11.7408 12.2235 11.74 12.2228 11.7392 12.2223C11.7383 12.2218 11.7373 12.2216 11.7364 12.2216H10.9379C10.9368 12.2216 10.9357 12.222 10.9349 12.2227C10.934 12.2234 10.9333 12.2243 10.933 12.2254L10.8018 13.1595C10.7858 13.2585 10.7357 13.349 10.6603 13.4151C10.5848 13.4813 10.4886 13.5191 10.3883 13.522C10.3425 13.5234 10.297 13.5144 10.2552 13.4959C10.2133 13.4774 10.1761 13.4497 10.1462 13.415C10.1164 13.3802 10.0947 13.3392 10.0828 13.295C10.0708 13.2508 10.0689 13.2045 10.0771 13.1595L10.5114 10.0685C10.5286 9.96387 10.5816 9.86846 10.6614 9.79862C10.7413 9.72878 10.8429 9.68886 10.9489 9.6857H12.1848C12.1848 9.6857 12.7273 9.66875 13.0341 9.93234ZM16.4357 10.0231C16.4208 10.1157 16.3741 10.2001 16.3036 10.2619C16.2331 10.3237 16.1433 10.359 16.0496 10.3616H14.6118C14.6107 10.3617 14.6097 10.3621 14.6088 10.3628C14.6079 10.3635 14.6072 10.3644 14.6069 10.3655L14.4926 11.177C14.4924 11.1777 14.4924 11.1784 14.4926 11.179C14.4927 11.1797 14.493 11.1803 14.4934 11.1809C14.4939 11.1814 14.4944 11.1818 14.495 11.1821C14.4956 11.1824 14.4963 11.1825 14.497 11.1825H15.6137C15.6565 11.1812 15.699 11.1895 15.7381 11.2068C15.7773 11.2241 15.8121 11.2499 15.8399 11.2823C15.8678 11.3148 15.8881 11.3531 15.8993 11.3944C15.9105 11.4357 15.9123 11.4789 15.9046 11.521C15.8898 11.6136 15.8431 11.698 15.7726 11.7598C15.7021 11.8216 15.6123 11.8569 15.5186 11.8595H14.4013C14.4002 11.8596 14.3991 11.86 14.3982 11.8607C14.3973 11.8614 14.3967 11.8623 14.3964 11.8634L14.2591 12.8401C14.2591 12.8414 14.2596 12.8428 14.2605 12.8438C14.2614 12.8448 14.2627 12.8454 14.264 12.8455H15.7007C15.7434 12.8443 15.7859 12.8526 15.8251 12.8699C15.8642 12.8871 15.899 12.9129 15.9269 12.9454C15.9548 12.9778 15.9751 13.0161 15.9863 13.0574C15.9975 13.0987 15.9993 13.142 15.9916 13.1841C15.9767 13.2766 15.93 13.3611 15.8595 13.4229C15.7891 13.4847 15.6992 13.5199 15.6055 13.5226H13.8227C13.7746 13.5233 13.7269 13.5133 13.6831 13.4935C13.6392 13.4737 13.6003 13.4446 13.569 13.408C13.5377 13.3715 13.5148 13.3285 13.5019 13.2822C13.4891 13.2358 13.4865 13.1872 13.4946 13.1398L13.9261 10.0707C13.9433 9.96605 13.9963 9.87064 14.0761 9.80081C14.1559 9.73097 14.2575 9.69105 14.3636 9.68789H16.1458C16.1882 9.68689 16.2302 9.69526 16.2689 9.71242C16.3077 9.72958 16.3421 9.7551 16.3698 9.78714C16.3975 9.81918 16.4178 9.85696 16.4292 9.89776C16.4406 9.93855 16.4428 9.98137 16.4357 10.0231ZM19.4221 10.0231C19.4073 10.1157 19.3606 10.2001 19.2901 10.2619C19.2196 10.3237 19.1298 10.359 19.0361 10.3616H17.5983C17.5972 10.3617 17.5961 10.3621 17.5953 10.3628C17.5944 10.3635 17.5937 10.3644 17.5934 10.3655L17.4796 11.177C17.4795 11.1777 17.4795 11.1784 17.4796 11.179C17.4797 11.1797 17.48 11.1803 17.4805 11.1809C17.4809 11.1814 17.4814 11.1818 17.4821 11.1821C17.4827 11.1824 17.4833 11.1825 17.484 11.1825H18.6007C18.6435 11.1812 18.686 11.1895 18.7252 11.2068C18.7643 11.2241 18.7991 11.2499 18.827 11.2823C18.8549 11.3148 18.8751 11.3531 18.8863 11.3944C18.8975 11.4357 18.8994 11.4789 18.8917 11.521C18.8768 11.6136 18.8301 11.698 18.7596 11.7598C18.6891 11.8216 18.5993 11.8569 18.5056 11.8595H17.3878C17.3867 11.8596 17.3856 11.86 17.3847 11.8607C17.3838 11.8614 17.3832 11.8623 17.3829 11.8634L17.2456 12.8401C17.2456 12.8414 17.2461 12.8428 17.247 12.8438C17.2479 12.8448 17.2492 12.8454 17.2505 12.8455H18.6871C18.7299 12.8443 18.7724 12.8526 18.8116 12.8699C18.8507 12.8871 18.8855 12.9129 18.9134 12.9454C18.9413 12.9778 18.9615 13.0161 18.9727 13.0574C18.9839 13.0987 18.9858 13.142 18.9781 13.1841C18.9632 13.2766 18.9165 13.3611 18.846 13.4229C18.7755 13.4847 18.6857 13.5199 18.592 13.5226H16.8092C16.7611 13.5233 16.7134 13.5133 16.6696 13.4935C16.6257 13.4737 16.5868 13.4446 16.5555 13.408C16.5241 13.3715 16.5013 13.3285 16.4884 13.2822C16.4755 13.2358 16.473 13.1872 16.4811 13.1398L16.9125 10.0707C16.9297 9.96605 16.9828 9.87064 17.0626 9.80081C17.1424 9.73097 17.244 9.69105 17.35 9.68789H19.1323C19.1747 9.68689 19.2167 9.69526 19.2554 9.71242C19.2941 9.72958 19.3286 9.7551 19.3563 9.78714C19.384 9.81918 19.4043 9.85696 19.4157 9.89776C19.427 9.93855 19.4293 9.98137 19.4221 10.0231ZM21.5003 9.67258C21.9886 9.67258 22.6208 9.67914 23.2552 9.68953C24.0241 9.70211 24.6968 10.0554 25.1004 10.658C25.5314 11.308 25.9189 11.9857 26.2603 12.687C26.4407 13.0545 26.1088 13.533 25.674 13.533H21.0119L21.5003 9.67258Z" fill="url(#paint3_linear_43_1749)"/>
<path d="M11.8914 11.5453H11.0273L11.1914 10.3619H12.0549C12.0549 10.3619 12.6888 10.3209 12.5848 10.9536C12.5876 10.9536 12.5148 11.5453 11.8914 11.5453Z" fill="url(#paint4_linear_43_1749)"/>
</g>
<defs>
<linearGradient id="paint0_linear_43_1749" x1="8.61152" y1="21.2235" x2="11.8477" y2="18.2067" gradientUnits="userSpaceOnUse">
<stop stop-color="#E24854"/>
<stop offset="1" stop-color="#D13C48"/>
</linearGradient>
<linearGradient id="paint1_linear_43_1749" x1="20.4357" y1="21.2244" x2="23.6719" y2="18.2077" gradientUnits="userSpaceOnUse">
<stop stop-color="#E24854"/>
<stop offset="1" stop-color="#D13C48"/>
</linearGradient>
<linearGradient id="paint2_linear_43_1749" x1="0.295898" y1="10.926" x2="2.16348" y2="10.926" gradientUnits="userSpaceOnUse">
<stop stop-color="#E24854"/>
<stop offset="1" stop-color="#D13C48"/>
</linearGradient>
<linearGradient id="paint3_linear_43_1749" x1="-0.0126953" y1="12.871" x2="28.0145" y2="12.871" gradientUnits="userSpaceOnUse">
<stop stop-color="#E24854"/>
<stop offset="1" stop-color="#D13C48"/>
</linearGradient>
<linearGradient id="paint4_linear_43_1749" x1="11.0273" y1="10.9533" x2="12.5964" y2="10.9533" gradientUnits="userSpaceOnUse">
<stop stop-color="#E24854"/>
<stop offset="1" stop-color="#D13C48"/>
</linearGradient>
<clipPath id="clip0_43_1749">
<rect width="28" height="28" fill="white"/>
</clipPath>
</defs>
</svg>
