<svg width="28" height="28" viewBox="0 0 28 28" fill="none" xmlns="http://www.w3.org/2000/svg">
<g clip-path="url(#clip0_43_1780)">
<path d="M25.4955 3.6709L23.1621 1.33755C22.9342 1.10966 22.5651 1.10966 22.3373 1.33755C22.1094 1.56543 22.1094 1.93457 22.3373 2.1624L24.2582 4.0833L22.3373 6.0042C22.2279 6.11357 22.1664 6.26166 22.1664 6.41665V8.16665C22.1664 9.45355 23.2129 10.5 24.4997 10.5V20.4166C24.4997 20.7385 24.2382 21 23.9164 21C23.5945 21 23.333 20.7385 23.333 20.4166V19.25C23.333 18.285 22.548 17.5 21.583 17.5H20.9997V2.33335C20.9997 1.04645 19.9533 0 18.6664 0H6.99971C5.71286 0 4.66636 1.04645 4.66636 2.33335V23.3334C3.37951 23.3334 2.33301 24.3798 2.33301 25.6667V27.4167C2.33301 27.7391 2.59392 28.0001 2.91636 28.0001H22.7497C23.0721 28.0001 23.3331 27.7391 23.3331 27.4167V25.6667C23.3331 24.3799 22.2866 23.3334 20.9997 23.3334V18.6667H21.5831C21.9049 18.6667 22.1664 18.9282 22.1664 19.2501V20.4167C22.1664 21.3817 22.9514 22.1667 23.9164 22.1667C24.8814 22.1667 25.6664 21.3817 25.6664 20.4167V4.08335C25.6664 3.92837 25.6048 3.78027 25.4955 3.6709ZM18.6664 9.92748C18.6664 10.2499 18.4054 10.5108 18.083 10.5108H7.58301C7.26057 10.5108 6.99966 10.2499 6.99966 9.92748V2.91665C6.99966 2.59421 7.26057 2.3333 7.58301 2.3333H18.083C18.4054 2.3333 18.6664 2.59421 18.6664 2.91665V9.92748Z" fill="url(#paint0_linear_43_1780)"/>
</g>
<defs>
<linearGradient id="paint0_linear_43_1780" x1="2.33301" y1="14" x2="25.6664" y2="14" gradientUnits="userSpaceOnUse">
<stop stop-color="#E24854"/>
<stop offset="1" stop-color="#D13C48"/>
</linearGradient>
<clipPath id="clip0_43_1780">
<rect width="28" height="28" fill="white"/>
</clipPath>
</defs>
</svg>
