<svg width="40" height="40" viewBox="0 0 40 40" fill="none" xmlns="http://www.w3.org/2000/svg">
<path d="M36.3427 16.7355H35.0002V16.6663H20.0002V23.333H29.4193C28.0452 27.2138 24.3527 29.9997 20.0002 29.9997C14.4777 29.9997 10.0002 25.5222 10.0002 19.9997C10.0002 14.4772 14.4777 9.99967 20.0002 9.99967C22.5493 9.99967 24.8685 10.9613 26.6343 12.5322L31.3485 7.81801C28.3718 5.04384 24.3902 3.33301 20.0002 3.33301C10.796 3.33301 3.3335 10.7955 3.3335 19.9997C3.3335 29.2038 10.796 36.6663 20.0002 36.6663C29.2043 36.6663 36.6668 29.2038 36.6668 19.9997C36.6668 18.8822 36.5518 17.7913 36.3427 16.7355Z" fill="#FFC107"/>
<path d="M5.25488 12.2422L10.7307 16.258C12.2124 12.5897 15.8007 9.99967 19.9999 9.99967C22.5491 9.99967 24.8682 10.9613 26.6341 12.5322L31.3482 7.81801C28.3716 5.04384 24.3899 3.33301 19.9999 3.33301C13.5982 3.33301 8.04655 6.94717 5.25488 12.2422Z" fill="#FF3D00"/>
<path d="M20.0001 36.6663C24.3051 36.6663 28.2168 35.0188 31.1743 32.3396L26.0159 27.9746C24.2867 29.2905 22.1731 30.0019 20.0001 29.9996C15.6651 29.9996 11.9843 27.2354 10.5976 23.3779L5.1626 27.5654C7.92093 32.9629 13.5226 36.6663 20.0001 36.6663Z" fill="#4CAF50"/>
<path d="M36.3425 16.7362H35V16.667H20V23.3337H29.4192C28.7618 25.1807 27.5778 26.7946 26.0133 27.9762L26.0158 27.9745L31.1742 32.3395C30.8092 32.6712 36.6667 28.3337 36.6667 20.0003C36.6667 18.8828 36.5517 17.792 36.3425 16.7362Z" fill="#1976D2"/>
</svg>
