<svg width="28" height="28" viewBox="0 0 28 28" fill="none" xmlns="http://www.w3.org/2000/svg">
<g clip-path="url(#clip0_34_1096)">
<path fill-rule="evenodd" clip-rule="evenodd" d="M16.8252 25.4424C16.8252 24.4746 16.0406 23.6901 15.0729 23.6901H12.9271C12.4624 23.6901 12.0167 23.8747 11.6881 24.2033C11.3595 24.5319 11.1748 24.9776 11.1748 25.4424C11.1748 26.4101 11.9594 27.1947 12.9271 27.1947H15.0729C16.0406 27.1947 16.8252 26.4101 16.8252 25.4424ZM3.6838 20.9239C3.97649 20.9463 4.33059 20.9592 4.68628 20.9383C4.87577 21.8993 5.34652 22.7906 6.0492 23.4933C6.98206 24.4261 8.24726 24.9502 9.56648 24.9502H10.2351C10.2056 25.1115 10.1905 25.2762 10.1905 25.4424C10.1905 25.6104 10.2056 25.775 10.2347 25.9346H9.56648C7.98618 25.9346 6.47057 25.3068 5.35314 24.1894C4.46168 23.2979 3.88183 22.153 3.6838 20.9239ZM3.18309 19.8765C2.40592 19.7455 1.68273 19.376 1.1182 18.8114C0.402227 18.0954 0 17.1244 0 16.1118V13.7852C0 12.7727 0.402227 11.8016 1.1182 11.0857C1.83416 10.3697 2.80525 9.96741 3.81779 9.96741H4.07192C4.47814 4.84012 8.76794 0.805664 14 0.805664C19.2321 0.805664 23.5219 4.84012 23.9281 9.96741H24.1822C25.1947 9.96741 26.1658 10.3697 26.8818 11.0857C27.5978 11.8016 28 12.7727 28 13.7852V16.1118C28 17.1244 27.5978 18.0954 26.8818 18.8114C26.1658 19.5274 25.1947 19.9297 24.1822 19.9297H23.0556C22.5883 19.9297 22.2096 19.5508 22.2096 19.0836V10.7652C22.2096 6.23121 18.534 2.55566 14 2.55566C9.46597 2.55566 5.79042 6.23121 5.79042 10.7652V19.0836C5.79042 19.4135 5.60159 19.6994 5.32607 19.8389C4.56766 20.102 3.3915 19.9117 3.18309 19.8765Z" fill="url(#paint0_linear_34_1096)"/>
</g>
<defs>
<linearGradient id="paint0_linear_34_1096" x1="0" y1="14.0002" x2="28" y2="14.0002" gradientUnits="userSpaceOnUse">
<stop stop-color="#E24854"/>
<stop offset="1" stop-color="#D13C48"/>
</linearGradient>
<clipPath id="clip0_34_1096">
<rect width="28" height="28" fill="white"/>
</clipPath>
</defs>
</svg>
