<svg width="24" height="24" viewBox="0 0 24 24" fill="none" xmlns="http://www.w3.org/2000/svg">
<path d="M18 0H6C2.688 0 0 2.688 0 6V18C0 21.312 2.688 24 6 24H18C21.312 24 24 21.312 24 18V6C24 2.688 21.312 0 18 0ZM12 18C8.688 18 6 15.312 6 12C6 8.688 8.688 6 12 6C15.312 6 18 8.688 18 12C18 15.312 15.312 18 12 18ZM18.42 6.744C17.76 6.744 17.22 6.204 17.22 5.544C17.22 4.884 17.76 4.344 18.42 4.344C19.08 4.344 19.62 4.884 19.62 5.544C19.62 6.204 19.08 6.744 18.42 6.744Z" fill="white"/>
<path d="M11.9999 15.5994C13.9881 15.5994 15.5999 13.9876 15.5999 11.9994C15.5999 10.0112 13.9881 8.39941 11.9999 8.39941C10.0117 8.39941 8.3999 10.0112 8.3999 11.9994C8.3999 13.9876 10.0117 15.5994 11.9999 15.5994Z" fill="white"/>
</svg>
