<svg width="15" height="15" viewBox="0 0 15 15" fill="none" xmlns="http://www.w3.org/2000/svg">
<path d="M3.24519 14.495H0.239426L0.239426 4.81763H3.24519V14.495ZM1.74069 3.49756C0.779751 3.49756 0 2.70163 0 1.74069C0 1.27903 0.183393 0.836279 0.509836 0.509836C0.836279 0.183393 1.27903 0 1.74069 0C2.20235 0 2.6451 0.183393 2.97154 0.509836C3.29798 0.836279 3.48138 1.27903 3.48138 1.74069C3.48138 2.70163 2.70163 3.49756 1.74069 3.49756ZM14.4917 14.495H11.4924V9.7841C11.4924 8.66138 11.4698 7.2216 9.92969 7.2216C8.36696 7.2216 8.12753 8.44137 8.12753 9.70321V14.495H5.125V4.81763H8.00782V6.13771H8.04988C8.45108 5.37737 9.43143 4.57497 10.8939 4.57497C13.9352 4.57497 14.495 6.57773 14.495 9.17906V14.495H14.4917Z" fill="white"/>
</svg>
