<svg width="28" height="28" viewBox="0 0 28 28" fill="none" xmlns="http://www.w3.org/2000/svg">
<path d="M22.8668 20.0664C21.9106 20.0664 21.091 20.6423 20.7301 21.4664H16.6287C16.2431 20.3797 15.2178 19.5996 14 19.5996C12.7823 19.5996 11.7578 20.3797 11.3714 21.4664H7.26997C6.90905 20.6423 6.08949 20.0664 5.13329 20.0664C3.84445 20.0664 2.80005 21.1108 2.80005 22.3996C2.80005 23.6884 3.84445 24.7328 5.13329 24.7328C6.09033 24.7328 6.90989 24.1552 7.26997 23.3328H11.3714C11.757 24.4176 12.7823 25.1996 14 25.1996C15.2178 25.1996 16.2431 24.4176 16.6287 23.3328H20.7301C21.0902 24.1552 21.9098 24.7328 22.8668 24.7328C24.1556 24.7328 25.2 23.6884 25.2 22.3996C25.2 21.1108 24.1556 20.0664 22.8668 20.0664ZM14 23.3328C13.484 23.3328 13.0668 22.9156 13.0668 22.3996C13.0668 21.8836 13.484 21.4664 14 21.4664C14.5161 21.4664 14.9333 21.8836 14.9333 22.3996C14.9333 22.9156 14.5161 23.3328 14 23.3328Z" fill="url(#paint0_linear_43_1871)"/>
<path d="M14 2.7998C10.3934 2.7998 7.4668 5.72356 7.4668 9.33304C7.4668 11.136 8.1976 12.7692 9.38088 13.9525L14 18.1998L18.6203 13.9505C19.8033 12.7692 20.5344 11.136 20.5333 9.33136C20.5333 5.72552 17.6087 2.7998 14 2.7998ZM14 12.133C12.4542 12.133 11.2 10.8789 11.2 9.33304C11.2 7.78716 12.4542 6.53304 14 6.53304C15.5468 6.53304 16.8 7.78716 16.8 9.33304C16.8 10.8789 15.5468 12.133 14 12.133Z" fill="url(#paint1_linear_43_1871)"/>
<defs>
<linearGradient id="paint0_linear_43_1871" x1="2.80005" y1="22.3996" x2="25.2" y2="22.3996" gradientUnits="userSpaceOnUse">
<stop stop-color="#E24854"/>
<stop offset="1" stop-color="#D13C48"/>
</linearGradient>
<linearGradient id="paint1_linear_43_1871" x1="7.4668" y1="10.4998" x2="20.5333" y2="10.4998" gradientUnits="userSpaceOnUse">
<stop stop-color="#E24854"/>
<stop offset="1" stop-color="#D13C48"/>
</linearGradient>
</defs>
</svg>
