<svg width="28" height="28" viewBox="0 0 28 28" fill="none" xmlns="http://www.w3.org/2000/svg">
<path d="M27.5333 7.2334H7.93332C7.67525 7.2334 7.46667 7.47468 7.46667 7.77191V13.7667C7.46667 14.0243 7.67575 14.2333 7.93332 14.2333H27.5333C27.7909 14.2333 28 14.0243 28 13.7667V7.77191C28 7.47462 27.7914 7.2334 27.5333 7.2334Z" fill="#767676"/>
<path d="M27.5334 15.167H14.4667C14.2091 15.167 14 15.3761 14 15.6336V18.3986C13.9903 18.5121 14.0215 18.6264 14.091 18.7192C14.1788 18.8368 14.3174 18.9064 14.4648 18.9064H14.4653L15.8672 18.9049C15.8695 19.9321 16.7053 20.7669 17.7334 20.7669C18.7629 20.7669 19.6 19.9297 19.6 18.9003H22.4C22.4 19.9298 23.2373 20.7669 24.2667 20.7669C25.2962 20.7669 26.1333 19.9297 26.1333 18.9003H27.5333C27.7909 18.9003 28 18.6912 28 18.4336V15.6336C28 15.3761 27.791 15.167 27.5334 15.167ZM17.7334 19.8337C17.2187 19.8337 16.8 19.4151 16.8 18.9003C16.8 18.3856 17.2186 17.967 17.7334 17.967C18.2481 17.967 18.6667 18.3856 18.6667 18.9003C18.6667 19.4151 18.2481 19.8337 17.7334 19.8337ZM24.2667 19.8337C23.752 19.8337 23.3333 19.4151 23.3333 18.9003C23.3333 18.3856 23.7519 17.967 24.2667 17.967C24.7814 17.967 25.2 18.3856 25.2 18.9003C25.2 19.4151 24.7815 19.8337 24.2667 19.8337Z" fill="#767676"/>
<path d="M12.6 15.1664H7C6.74242 15.1664 6.53335 14.9573 6.53335 14.6997V10.0331C6.53335 9.77548 6.32428 9.56641 6.0667 9.56641H2.33335C2.14249 9.56641 1.97077 9.68262 1.89984 9.85991L0.0335781 14.5256C0.0224219 14.5844 0.0112109 14.6414 0 14.6997V19.3664C0 19.6239 0.20907 19.833 0.466648 19.833H2.12614C2.45 20.3884 3.04549 20.7664 3.73335 20.7664C4.76284 20.7664 5.6 19.9291 5.6 18.8997H7.46665C7.46665 19.9292 8.30386 20.7664 9.3333 20.7664C10.3627 20.7664 11.2 19.9292 11.2 18.8997H12.6C12.8576 18.8997 13.0666 18.6906 13.0666 18.4331V15.6331C13.0666 15.3754 12.8576 15.1664 12.6 15.1664ZM1.50735 14.2331C1.34028 14.2331 1.22735 14.0632 1.29221 13.9092L2.27363 11.5758C2.30956 11.4895 2.39449 11.4331 2.48828 11.4331H3.9667C4.09549 11.4331 4.20005 11.5376 4.20005 11.6664V13.9997C4.20005 14.1285 4.09555 14.2331 3.9667 14.2331H1.50735ZM3.73335 19.8331C3.21863 19.8331 2.8 19.4145 2.8 18.8997C2.8 18.385 3.21858 17.9664 3.73335 17.9664C4.24807 17.9664 4.6667 18.3849 4.6667 18.8997C4.66665 19.4144 4.24807 19.8331 3.73335 19.8331ZM9.33335 19.8331C8.81863 19.8331 8.4 19.4145 8.4 18.8997C8.4 18.385 8.81858 17.9664 9.33335 17.9664C9.84807 17.9664 10.2667 18.3849 10.2667 18.8997C10.2666 19.4144 9.84807 19.8331 9.33335 19.8331Z" fill="#767676"/>
</svg>
