<svg width="23" height="18" viewBox="0 0 23 18" fill="none" xmlns="http://www.w3.org/2000/svg">
<path d="M22.1523 0.6875H1.15234C1.03631 0.6875 0.925032 0.733594 0.842985 0.815641C0.760937 0.897688 0.714844 1.00897 0.714844 1.125V16C0.714844 16.3481 0.853125 16.6819 1.09927 16.9281C1.34541 17.1742 1.67925 17.3125 2.02734 17.3125H21.2773C21.6254 17.3125 21.9593 17.1742 22.2054 16.9281C22.4516 16.6819 22.5898 16.3481 22.5898 16V1.125C22.5898 1.00897 22.5438 0.897688 22.4617 0.815641C22.3797 0.733594 22.2684 0.6875 22.1523 0.6875ZM11.6523 10.1561L2.27672 1.5625H21.028L11.6523 10.1561ZM9.09625 9L1.58984 15.8808V2.11922L9.09625 9ZM9.74375 9.59391L11.357 11.0781C11.4377 11.1519 11.543 11.1928 11.6523 11.1928C11.7617 11.1928 11.867 11.1519 11.9477 11.0781L13.5609 9.59937L21.028 16.4375H2.27672L9.74375 9.59391ZM14.2084 9L21.7148 2.11922V15.8808L14.2084 9Z" fill="#4B4B4B"/>
</svg>
