<svg width="24" height="24" viewBox="0 0 24 24" fill="none" xmlns="http://www.w3.org/2000/svg">
<path d="M21.9133 18.6663L19.8267 15.0596C18.699 16.8041 17.0215 18.1226 15.0599 18.8063L16.7133 21.6663C16.772 21.768 16.8566 21.8525 16.9585 21.911C17.0603 21.9695 17.1758 22.0001 17.2933 21.9996C17.4096 21.9989 17.5238 21.9678 17.6244 21.9093C17.7249 21.8508 17.8085 21.7671 17.8666 21.6663L19.0266 19.6663H21.3333C21.4508 19.6668 21.5663 19.6362 21.6682 19.5776C21.77 19.5191 21.8546 19.4347 21.9133 19.3329C21.9719 19.2316 22.0027 19.1166 22.0027 18.9996C22.0027 18.8826 21.9719 18.7676 21.9133 18.6663Z" fill="url(#paint0_linear_43_1704)"/>
<path d="M4.17332 15.0596L2.08663 18.6663C2.02812 18.7676 1.99731 18.8826 1.99731 18.9996C1.99731 19.1166 2.02812 19.2316 2.08663 19.3329C2.14537 19.4347 2.22995 19.5191 2.3318 19.5776C2.43365 19.6362 2.54916 19.6668 2.66664 19.6663H4.97333L6.13334 21.6663C6.19151 21.7671 6.27504 21.8508 6.37562 21.9093C6.4762 21.9678 6.59034 21.9989 6.70668 21.9996C6.82415 22.0001 6.93967 21.9695 7.04152 21.911C7.14337 21.8525 7.22795 21.768 7.28669 21.6663L8.94004 18.8063C6.97846 18.1226 5.30101 16.8041 4.17332 15.0596Z" fill="url(#paint1_linear_43_1704)"/>
<path d="M12.6668 8.31968L12.0002 6.98633L11.3335 8.31968C11.2853 8.41548 11.2146 8.49823 11.1276 8.5609C11.0405 8.62358 10.9397 8.66432 10.8335 8.67968L9.40015 8.89302L10.4402 9.91969C10.5173 9.99463 10.5752 10.0871 10.6089 10.1893C10.6425 10.2914 10.651 10.4002 10.6335 10.5064L10.3868 11.9464L11.6602 11.2797C11.7576 11.2315 11.8648 11.2064 11.9735 11.2064C12.0822 11.2064 12.1894 11.2315 12.2868 11.2797L13.5602 11.9464L13.3335 10.5064C13.316 10.4002 13.3245 10.2914 13.3581 10.1893C13.3918 10.0871 13.4497 9.99463 13.5269 9.91969L14.5669 8.89302L13.1402 8.66635C13.0401 8.64849 12.9454 8.60797 12.8633 8.54788C12.7813 8.48779 12.7141 8.40973 12.6668 8.31968Z" fill="url(#paint2_linear_43_1704)"/>
<path d="M20 10.0001C20 8.41782 19.5309 6.87109 18.6518 5.55548C17.7727 4.23987 16.5233 3.21448 15.0615 2.60897C13.5996 2.00347 11.9911 1.84504 10.4392 2.15372C8.88736 2.46241 7.46188 3.22434 6.34305 4.34317C5.22422 5.46201 4.46229 6.88748 4.1536 8.43935C3.84492 9.99121 4.00334 11.5998 4.60885 13.0616C5.21436 14.5234 6.23975 15.7729 7.55536 16.6519C8.87096 17.531 10.4177 18.0002 12 18.0002C14.1217 18.0002 16.1566 17.1573 17.6569 15.657C19.1572 14.1567 20 12.1218 20 10.0001ZM16.4667 8.90674L14.7133 10.6268L15.1267 13.0535C15.1505 13.1784 15.138 13.3076 15.0907 13.4258C15.0435 13.5439 14.9634 13.646 14.86 13.7201C14.7475 13.8016 14.6123 13.8459 14.4733 13.8468C14.3639 13.8462 14.2563 13.8188 14.16 13.7668L12 12.6134L9.83994 13.7535C9.73454 13.805 9.61739 13.8279 9.50034 13.8197C9.38328 13.8115 9.27046 13.7726 9.17327 13.7068C9.06984 13.6327 8.98977 13.5306 8.94251 13.4124C8.89526 13.2943 8.8828 13.1651 8.9066 13.0401L9.31994 10.6134L7.53325 8.90674C7.44338 8.82021 7.37959 8.7102 7.34914 8.58922C7.31869 8.46823 7.3228 8.34113 7.361 8.22237C7.3992 8.1036 7.46996 7.99794 7.56523 7.91739C7.6605 7.83684 7.77646 7.78465 7.89992 7.76673L10.3199 7.41339L11.4 5.2067C11.4546 5.09399 11.5398 4.99893 11.6459 4.93242C11.752 4.8659 11.8747 4.83063 12 4.83063C12.1252 4.83063 12.2479 4.8659 12.354 4.93242C12.4601 4.99893 12.5454 5.09399 12.6 5.2067L13.68 7.41339L16.1 7.76673C16.2235 7.78465 16.3394 7.83684 16.4347 7.91739C16.53 7.99794 16.6007 8.1036 16.6389 8.22237C16.6771 8.34113 16.6812 8.46823 16.6508 8.58922C16.6203 8.7102 16.5566 8.82021 16.4667 8.90674Z" fill="url(#paint3_linear_43_1704)"/>
<defs>
<linearGradient id="paint0_linear_43_1704" x1="15.0599" y1="18.5296" x2="22.0027" y2="18.5296" gradientUnits="userSpaceOnUse">
<stop stop-color="#E24854"/>
<stop offset="1" stop-color="#D13C48"/>
</linearGradient>
<linearGradient id="paint1_linear_43_1704" x1="1.99731" y1="18.5296" x2="8.94004" y2="18.5296" gradientUnits="userSpaceOnUse">
<stop stop-color="#E24854"/>
<stop offset="1" stop-color="#D13C48"/>
</linearGradient>
<linearGradient id="paint2_linear_43_1704" x1="9.40015" y1="9.46635" x2="14.5669" y2="9.46635" gradientUnits="userSpaceOnUse">
<stop stop-color="#E24854"/>
<stop offset="1" stop-color="#D13C48"/>
</linearGradient>
<linearGradient id="paint3_linear_43_1704" x1="3.99988" y1="10.0001" x2="20" y2="10.0001" gradientUnits="userSpaceOnUse">
<stop stop-color="#E24854"/>
<stop offset="1" stop-color="#D13C48"/>
</linearGradient>
</defs>
</svg>
