<svg width="28" height="28" viewBox="0 0 28 28" fill="none" xmlns="http://www.w3.org/2000/svg">
<g clip-path="url(#clip0_43_1760)">
<path d="M0.381676 14.0368C0.080687 14.1476 -0.074456 14.4813 0.0351886 14.7834L0.401527 15.7914L3.19087 13.002L0.381676 14.0368Z" fill="url(#paint0_linear_43_1760)"/>
<path d="M3.02148 22.9961L4.70143 27.6159C4.75392 27.7618 4.86357 27.8808 5.00356 27.9449C5.08171 27.9811 5.16571 27.9998 5.2497 27.9998C5.31855 27.9998 5.3862 27.9881 5.45155 27.9636L7.30533 27.28L3.02148 22.9961Z" fill="url(#paint1_linear_43_1760)"/>
<path d="M27.964 19.0516L26.0414 13.7656L21.4274 18.3796L23.714 17.5373C24.0138 17.4229 24.3521 17.5793 24.4629 17.8826C24.5749 18.1848 24.4198 18.5208 24.1176 18.6316L21.2127 19.7026C21.1462 19.7271 21.0785 19.7387 21.0108 19.7387C20.774 19.7387 20.55 19.5929 20.4637 19.3572C20.4626 19.3537 20.4637 19.3502 20.4626 19.3467L15.5732 24.2361L27.6175 19.7982C27.9196 19.6874 28.0747 19.3537 27.964 19.0516Z" fill="url(#paint2_linear_43_1760)"/>
<path d="M27.8288 9.50364L18.4958 0.170619C18.2683 -0.056873 17.8985 -0.056873 17.671 0.170619L0.171596 17.67C-0.0558964 17.8975 -0.0558964 18.2673 0.171596 18.4948L9.50462 27.8278C9.61776 27.9422 9.76711 27.9993 9.91646 27.9993C10.0658 27.9993 10.2151 27.9422 10.3294 27.829L27.8288 10.3296C28.0563 10.101 28.0563 9.73228 27.8288 9.50364ZM6.82956 16.1628L4.4963 18.496C4.38195 18.6091 4.23266 18.6663 4.08331 18.6663C3.93396 18.6663 3.78467 18.6092 3.67032 18.496C3.44283 18.2685 3.44283 17.8986 3.67032 17.6712L6.00359 15.3379C6.23109 15.1104 6.60092 15.1104 6.82842 15.3379C7.05591 15.5654 7.05706 15.9341 6.82956 16.1628ZM16.9034 16.9035C16.4904 17.3165 15.9292 17.5149 15.3051 17.5149C14.2737 17.5149 13.0686 16.9747 12.0607 15.9656C11.3234 15.2282 10.8054 14.3463 10.6036 13.483C10.3796 12.5205 10.5639 11.6829 11.1227 11.1229C11.6815 10.563 12.5192 10.3786 13.4828 10.6038C14.3461 10.8057 15.2281 11.3224 15.9653 12.0609C17.5858 13.6801 17.9988 15.8081 16.9034 16.9035ZM24.3289 10.3296L21.9957 12.6629C21.8813 12.776 21.732 12.8332 21.5827 12.8332C21.4333 12.8332 21.2841 12.7761 21.1697 12.6629C20.9422 12.4354 20.9422 12.0656 21.1697 11.8381L23.503 9.50479C23.7305 9.2773 24.1003 9.2773 24.3278 9.50479C24.5553 9.73228 24.5564 10.101 24.3289 10.3296Z" fill="url(#paint3_linear_43_1760)"/>
</g>
<defs>
<linearGradient id="paint0_linear_43_1760" x1="0" y1="14.3967" x2="3.19087" y2="14.3967" gradientUnits="userSpaceOnUse">
<stop stop-color="#E24854"/>
<stop offset="1" stop-color="#D13C48"/>
</linearGradient>
<linearGradient id="paint1_linear_43_1760" x1="3.02148" y1="25.4979" x2="7.30533" y2="25.4979" gradientUnits="userSpaceOnUse">
<stop stop-color="#E24854"/>
<stop offset="1" stop-color="#D13C48"/>
</linearGradient>
<linearGradient id="paint2_linear_43_1760" x1="15.5732" y1="19.0008" x2="27.9997" y2="19.0008" gradientUnits="userSpaceOnUse">
<stop stop-color="#E24854"/>
<stop offset="1" stop-color="#D13C48"/>
</linearGradient>
<linearGradient id="paint3_linear_43_1760" x1="0.000976562" y1="13.9997" x2="27.9994" y2="13.9997" gradientUnits="userSpaceOnUse">
<stop stop-color="#E24854"/>
<stop offset="1" stop-color="#D13C48"/>
</linearGradient>
<clipPath id="clip0_43_1760">
<rect width="28" height="28" fill="white"/>
</clipPath>
</defs>
</svg>
