<svg width="22" height="22" viewBox="0 0 22 22" fill="none" xmlns="http://www.w3.org/2000/svg">
<path d="M20.8002 14.7327L15.6355 12.4216C15.4353 12.335 15.2166 12.2996 14.9993 12.3187C14.782 12.3378 14.5728 12.4108 14.3908 12.531C14.3762 12.5402 14.3624 12.5505 14.3492 12.5616L11.6367 14.8738C11.5764 14.9106 11.5079 14.932 11.4373 14.936C11.3667 14.94 11.2962 14.9265 11.232 14.8968C9.45579 14.0393 7.6172 12.2149 6.7597 10.4594C6.72937 10.3958 6.71529 10.3256 6.71872 10.2552C6.72216 10.1847 6.743 10.1162 6.77939 10.0558L9.09814 7.2985C9.10908 7.28538 9.11892 7.27116 9.12876 7.25694C9.24863 7.07516 9.32138 6.86641 9.34048 6.64951C9.35957 6.43261 9.3244 6.21436 9.23814 6.01444L6.92267 0.858501C6.81089 0.597364 6.6174 0.37954 6.37127 0.237739C6.12514 0.0959376 5.83965 0.0378135 5.55767 0.072095C4.18126 0.25357 2.91798 0.929883 2.00378 1.97471C1.08958 3.01954 0.586978 4.36143 0.589856 5.74975C0.589856 14.1935 7.45861 21.0623 15.9024 21.0623C17.2907 21.0651 18.6326 20.5625 19.6774 19.6483C20.7222 18.7341 21.3985 17.4708 21.58 16.0944C21.614 15.8137 21.5565 15.5296 21.416 15.2842C21.2755 15.0388 21.0595 14.8454 20.8002 14.7327ZM20.7149 15.9851C20.5604 17.1507 19.9867 18.2202 19.101 18.9936C18.2153 19.767 17.0782 20.1913 15.9024 20.1873C7.94204 20.1873 1.46486 13.7101 1.46486 5.74975C1.46078 4.57391 1.88511 3.43684 2.65849 2.55113C3.43188 1.66542 4.50138 1.0917 5.66704 0.937251C5.68453 0.936165 5.70206 0.936165 5.71954 0.937251C5.80586 0.937987 5.89002 0.964237 5.96145 1.0127C6.03287 1.06116 6.08837 1.12967 6.12095 1.2096L8.42986 6.36553C8.4568 6.42855 8.46856 6.49701 8.46419 6.5654C8.45982 6.6338 8.43944 6.70021 8.4047 6.75928L6.08704 9.51553C6.07611 9.52975 6.06517 9.54288 6.05533 9.55819C5.93185 9.74701 5.85913 9.96447 5.84419 10.1896C5.82924 10.4147 5.87258 10.6399 5.97001 10.8433C6.92048 12.7891 8.88048 14.7349 10.8481 15.6854C11.053 15.7822 11.2795 15.8243 11.5054 15.8076C11.7314 15.7909 11.9492 15.716 12.1377 15.5902L12.1781 15.5596L14.8939 13.2496C14.952 13.2141 15.0177 13.1929 15.0856 13.1878C15.1535 13.1826 15.2216 13.1937 15.2844 13.2201L20.448 15.5344C20.5351 15.5707 20.6082 15.6342 20.6563 15.7154C20.7044 15.7966 20.7249 15.8912 20.7149 15.9851Z" fill="#4B4B4B"/>
</svg>
