<svg width="28" height="28" viewBox="0 0 28 28" fill="none" xmlns="http://www.w3.org/2000/svg">
<g clip-path="url(#clip0_43_1794)">
<path d="M19.6277 13.1123C16.731 13.1123 14.3828 15.4605 14.3828 18.3572C14.3828 21.2539 16.731 23.6021 19.6277 23.6021C22.5244 23.6021 24.8726 21.2539 24.8726 18.3572C24.8726 15.4605 22.5244 13.1123 19.6277 13.1123ZM21.5184 19.089C21.8385 19.409 21.8385 19.9279 21.5184 20.2479C21.1984 20.568 20.6795 20.568 20.3595 20.2479L19.6277 19.5161L18.8959 20.2479C18.5759 20.568 18.057 20.568 17.737 20.2479C17.4169 19.9279 17.4169 19.409 17.737 19.089L18.4687 18.3572L17.737 17.6254C17.4169 17.3054 17.4169 16.7865 17.737 16.4665C18.057 16.1464 18.5759 16.1464 18.8959 16.4665L19.6277 17.1982L20.3595 16.4665C20.6795 16.1464 21.1984 16.1464 21.5184 16.4665C21.8385 16.7865 21.8385 17.3054 21.5184 17.6254L20.7866 18.3572L21.5184 19.089Z" fill="url(#paint0_linear_43_1794)"/>
<path d="M6.62427 4.88976H15.2566C16.2181 4.88976 17.0049 4.10302 17.0049 3.14146V1.74829C17.0049 0.786732 16.2181 0 15.2566 0H6.62427C5.66271 0 4.87598 0.786732 4.87598 1.74829V3.14146C4.87598 4.10302 5.66271 4.88976 6.62427 4.88976Z" fill="url(#paint1_linear_43_1794)"/>
<path d="M12.7925 19.1768H8.75525C8.30266 19.1768 7.93573 18.8099 7.93573 18.3573C7.93573 17.9047 8.30266 17.5378 8.75525 17.5378H12.7925C12.8899 16.7208 13.1306 15.9472 13.4893 15.2432H3.12793V21.4715H13.4893C13.1306 20.7674 12.8899 19.9938 12.7925 19.1768Z" fill="url(#paint2_linear_43_1794)"/>
<path d="M14.6525 23.1104H3.12793V25.4323C3.12793 26.8482 4.27984 28.0001 5.69573 28.0001H16.1855C17.6014 28.0001 18.7533 26.8482 18.7533 25.4323V25.1858C17.1497 24.9817 15.7167 24.2237 14.6525 23.1104Z" fill="url(#paint3_linear_43_1794)"/>
<path d="M18.6954 11.536C18.369 9.54861 16.6577 7.92149 14.3826 7.92149V6.52832H7.49866V7.92149C4.96145 7.92149 3.12793 9.93995 3.12793 12.2376V13.6034H14.6525C15.7038 12.5035 17.1153 11.7509 18.6954 11.536Z" fill="url(#paint4_linear_43_1794)"/>
</g>
<defs>
<linearGradient id="paint0_linear_43_1794" x1="14.3828" y1="18.3572" x2="24.8726" y2="18.3572" gradientUnits="userSpaceOnUse">
<stop stop-color="#E24854"/>
<stop offset="1" stop-color="#D13C48"/>
</linearGradient>
<linearGradient id="paint1_linear_43_1794" x1="4.87598" y1="2.44488" x2="17.0049" y2="2.44488" gradientUnits="userSpaceOnUse">
<stop stop-color="#E24854"/>
<stop offset="1" stop-color="#D13C48"/>
</linearGradient>
<linearGradient id="paint2_linear_43_1794" x1="3.12793" y1="18.3573" x2="13.4893" y2="18.3573" gradientUnits="userSpaceOnUse">
<stop stop-color="#E24854"/>
<stop offset="1" stop-color="#D13C48"/>
</linearGradient>
<linearGradient id="paint3_linear_43_1794" x1="3.12793" y1="25.5552" x2="18.7533" y2="25.5552" gradientUnits="userSpaceOnUse">
<stop stop-color="#E24854"/>
<stop offset="1" stop-color="#D13C48"/>
</linearGradient>
<linearGradient id="paint4_linear_43_1794" x1="3.12793" y1="10.0659" x2="18.6954" y2="10.0659" gradientUnits="userSpaceOnUse">
<stop stop-color="#E24854"/>
<stop offset="1" stop-color="#D13C48"/>
</linearGradient>
<clipPath id="clip0_43_1794">
<rect width="28" height="28" fill="white"/>
</clipPath>
</defs>
</svg>
