<svg width="28" height="28" viewBox="0 0 28 28" fill="none" xmlns="http://www.w3.org/2000/svg">
<g clip-path="url(#clip0_43_1755)">
<path d="M24.5157 19.4809L28.0001 15.9967L24.5157 12.5123L25.0771 11.9509C26.0484 10.9796 26.0484 9.39922 25.0773 8.42788C24.6067 7.95748 23.981 7.69836 23.3155 7.69836C22.6503 7.69836 22.0246 7.95748 21.5542 8.42788L20.9928 8.98928L17.5084 5.50488L16.4802 6.53326V8.1585C18.299 8.59194 19.6557 10.2306 19.6557 12.1802C19.6557 14.1299 18.299 15.7686 16.4802 16.2018V21.2414H13.4639L12.8625 21.8427L17.5084 26.4884L20.9928 23.004L21.4767 23.4881C22.448 24.4594 24.0284 24.4594 24.9997 23.4881C25.9711 22.5167 25.9711 20.9363 24.9997 19.965L24.5157 19.4809Z" fill="url(#paint0_linear_43_1755)"/>
<path d="M14.8376 19.5992V14.6716H15.5218C16.8956 14.6716 18.0131 13.5541 18.0131 12.1803C18.0131 10.8067 16.8956 9.68928 15.5218 9.68928H14.8376V4.76165H9.90995V3.96783C9.90995 2.59402 8.79249 1.47656 7.41869 1.47656C6.04509 1.47656 4.92763 2.59402 4.92763 3.96783V4.76165H0V9.68928H0.684447C1.88971 9.68928 2.89758 10.5495 3.12658 11.6884C3.22592 11.8272 3.28509 11.9968 3.28509 12.1803C3.28509 12.3638 3.22592 12.5335 3.12658 12.6725C2.89758 13.8111 1.88971 14.6716 0.684447 14.6716H0V19.5992H4.92763V18.8052C4.92763 17.4316 6.04509 16.3142 7.41869 16.3142C8.79249 16.3142 9.90995 17.4316 9.90995 18.8052V19.5992H14.8376Z" fill="url(#paint1_linear_43_1755)"/>
</g>
<defs>
<linearGradient id="paint0_linear_43_1755" x1="12.8625" y1="15.9966" x2="28.0001" y2="15.9966" gradientUnits="userSpaceOnUse">
<stop stop-color="#E24854"/>
<stop offset="1" stop-color="#D13C48"/>
</linearGradient>
<linearGradient id="paint1_linear_43_1755" x1="0" y1="10.5379" x2="18.0131" y2="10.5379" gradientUnits="userSpaceOnUse">
<stop stop-color="#E24854"/>
<stop offset="1" stop-color="#D13C48"/>
</linearGradient>
<clipPath id="clip0_43_1755">
<rect width="28" height="28" fill="white"/>
</clipPath>
</defs>
</svg>
