<svg width="28" height="28" viewBox="0 0 28 28" fill="none" xmlns="http://www.w3.org/2000/svg">
<path fill-rule="evenodd" clip-rule="evenodd" d="M17.5728 12.3969C18.1333 13.313 17.2445 14.1704 16.4396 14.6774C15.4111 15.3253 12.4491 16.2451 11.071 16.849C8.76981 17.8574 6.8676 18.6578 5.08484 20.3378C3.69341 21.649 2.99794 23.0924 2.39337 24.7822C2.3531 24.8947 2.31402 25.0077 2.2761 25.1211C2.27095 25.1365 2.2733 25.152 2.28282 25.1652C2.29229 25.1784 2.30629 25.1855 2.32247 25.1855H19.5123C19.528 25.1855 19.5414 25.1789 19.551 25.1666C19.5606 25.1543 19.5636 25.1396 19.5597 25.1245C19.4949 24.8725 19.4365 24.621 19.3844 24.3699C18.9616 22.331 18.8722 21.3812 19.8096 19.4717C20.8884 17.274 22.1245 16.8591 23.8912 15.1709C24.9699 14.1402 25.8365 13.0253 25.7142 12.0369C25.4553 9.94535 22.8642 9.84449 20.9971 9.21897C19.6808 8.77803 18.4931 8.2462 18.2785 7.66284C17.9199 6.68828 19.131 5.77161 19.857 5.17644C20.8266 4.38164 21.89 3.68556 22.8698 2.90156C22.8876 2.88733 22.8932 2.86359 22.8837 2.84287C22.8741 2.8222 22.8524 2.81106 22.83 2.81537C21.1139 3.14656 19.444 3.57888 17.831 4.13563C15.7479 4.85467 12.5336 5.93732 12.0449 8.09925C11.537 10.3459 13.8664 10.6679 15.712 11.3144C15.7128 11.3147 15.7135 11.3149 15.7144 11.3152C16.5116 11.5483 17.2542 11.8761 17.5728 12.3969ZM16.9447 9.89416C16.7659 9.80081 16.6966 9.58017 16.79 9.40136C16.8833 9.22256 17.104 9.15328 17.2828 9.24664C17.7623 9.4969 18.4756 9.80955 19.0061 10.0073C19.1952 10.0777 19.2914 10.2881 19.221 10.4772C19.1506 10.6663 18.9402 10.7625 18.7511 10.6921C18.1951 10.4847 17.4549 10.1604 16.9447 9.89416ZM16.004 8.3312C16.1852 8.42142 16.2589 8.64139 16.1688 8.82255C16.0785 9.00371 15.8586 9.07752 15.6774 8.9873C15.0908 8.69504 14.8009 8.37214 14.7658 8.00786C14.7294 7.63098 14.9655 7.29 15.4292 6.96144C15.5938 6.84435 15.8221 6.88282 15.9392 7.0474C16.0563 7.21199 16.0178 7.4403 15.8532 7.5574C15.6127 7.72786 15.4856 7.85621 15.4936 7.93915C15.5027 8.03468 15.6647 8.1622 16.004 8.3312ZM20.3936 11.3405C20.2021 11.2764 20.0988 11.0692 20.1629 10.8777C20.227 10.6863 20.4342 10.583 20.6256 10.6471C21.5924 10.9704 22.3341 11.3194 22.6618 11.7926C23.0537 12.3584 22.9174 12.9953 22.0101 13.781C21.8574 13.9131 21.6265 13.8965 21.4944 13.7438C21.3623 13.5911 21.3789 13.3602 21.5316 13.2281C22.0839 12.7498 22.2148 12.4315 22.0601 12.2081C21.8413 11.8921 21.2225 11.6177 20.3936 11.3405ZM20.504 14.37C20.6733 14.2593 20.9004 14.3067 21.0111 14.476C21.1219 14.6453 21.0744 14.8724 20.9051 14.9832L16.3482 17.9675C16.1789 18.0782 15.9519 18.0307 15.8411 17.8615C15.7303 17.6922 15.7778 17.4651 15.9471 17.3543L20.504 14.37ZM14.3837 18.5589C14.5467 18.4395 14.7756 18.4748 14.8951 18.6377C15.0146 18.8007 14.9793 19.0297 14.8164 19.1492L12.8252 20.6178C11.9248 21.2819 11.1347 22.2828 10.5979 23.2217C10.4975 23.3973 10.2736 23.4582 10.098 23.3577C9.92234 23.2573 9.86142 23.0334 9.96188 22.8578C10.5463 21.8356 11.4077 20.754 12.3925 20.0275L14.3837 18.5589ZM17.5775 5.58586C17.6732 5.76388 17.6066 5.98581 17.4285 6.08152C17.1372 6.23865 16.9576 6.29381 16.6843 6.53993C16.534 6.67523 16.3025 6.66302 16.1672 6.51272C16.0319 6.36241 16.0441 6.13085 16.1944 5.99556C16.5609 5.66549 16.7487 5.61649 17.0818 5.43684C17.2599 5.34114 17.4818 5.40784 17.5775 5.58586Z" fill="url(#paint0_linear_43_1758)"/>
<defs>
<linearGradient id="paint0_linear_43_1758" x1="2.27344" y1="14" x2="25.7258" y2="14" gradientUnits="userSpaceOnUse">
<stop stop-color="#E24854"/>
<stop offset="1" stop-color="#D13C48"/>
</linearGradient>
</defs>
</svg>
