<svg width="15" height="14" viewBox="0 0 15 14" fill="none" xmlns="http://www.w3.org/2000/svg">
<path d="M14.062 5.63513L10.9475 8.67113L11.683 12.9591C11.715 13.1466 11.638 13.3361 11.484 13.4481C11.397 13.5116 11.2935 13.5436 11.19 13.5436C11.1105 13.5436 11.0305 13.5246 10.9575 13.4861L7.10652 11.4616L3.25602 13.4856C3.08802 13.5746 2.88352 13.5601 2.72952 13.4476C2.57552 13.3356 2.49852 13.1461 2.53052 12.9586L3.26602 8.67062L0.151024 5.63513C0.0150238 5.50213 -0.0344762 5.30313 0.0245238 5.12263C0.0835237 4.94213 0.240024 4.80962 0.428524 4.78212L4.73302 4.15712L6.65802 0.256125C6.82652 -0.085375 7.38652 -0.085375 7.55502 0.256125L9.48002 4.15712L13.7845 4.78212C13.973 4.80962 14.1295 4.94163 14.1885 5.12263C14.2475 5.30363 14.198 5.50163 14.062 5.63513Z" fill="url(#paint0_linear_43_1896)"/>
<defs>
<linearGradient id="paint0_linear_43_1896" x1="0" y1="6.77181" x2="14.213" y2="6.77181" gradientUnits="userSpaceOnUse">
<stop stop-color="#E24854"/>
<stop offset="1" stop-color="#D13C48"/>
</linearGradient>
</defs>
</svg>
