<svg width="28" height="28" viewBox="0 0 28 28" fill="none" xmlns="http://www.w3.org/2000/svg">
<path fill-rule="evenodd" clip-rule="evenodd" d="M10.9564 18.3603H17.0697C17.4393 18.3603 17.7405 18.5236 17.8282 18.8951L18.0634 19.905C18.2299 20.6728 17.4879 21.1202 16.7085 21.1202H11.3173C10.5364 21.1202 9.7944 20.6728 9.96115 19.905L10.1982 18.8951C10.2856 18.5239 10.5849 18.3603 10.9564 18.3603ZM21.229 17.0446C21.5108 17.053 21.7588 17.2521 21.8384 17.6379C21.9424 18.15 22.064 19.1627 21.4934 19.4965C21.0236 19.7699 20.038 19.9663 19.512 20.0929C19.0064 20.2145 18.8801 19.7395 19.0562 19.0298C19.3838 17.7123 20.1245 17.4338 20.9393 17.1C21.0364 17.0592 21.1356 17.0415 21.229 17.0446ZM6.79653 17.0446C6.8908 17.0415 6.98973 17.0592 7.08711 17.0997C7.90191 17.4335 8.64266 17.7119 8.96964 19.0295C9.14635 19.7391 9.01817 20.2142 8.51448 20.0926C7.98777 19.9659 7.0028 19.7696 6.53302 19.4962C5.96244 19.1627 6.08408 18.1497 6.18799 17.6376C6.26546 17.2521 6.51342 17.053 6.79653 17.0446ZM7.26786 6.19492H20.7788C21.0849 8.48594 21.2582 10.8759 21.2582 12.8431H6.78844C6.78844 10.8759 6.96173 8.48594 7.26786 6.19492ZM8.38008 3.19238C7.15151 3.19238 6.41915 4.21003 6.16342 5.41029C5.84733 6.88838 5.60435 9.7335 5.44382 12.3534H4.87635L4.97373 10.3557C4.98524 10.1451 4.82657 9.97647 4.61595 9.97647C3.96946 9.97647 3.11577 9.91518 3.06039 11.0246L2.95835 13.0876C2.94684 13.2967 3.10613 13.465 3.31613 13.465H5.37911C5.28017 15.2977 5.22666 16.8906 5.22666 17.6149V21.64C5.22666 22.518 5.3872 22.9072 6.17151 23.3611V24.2148C6.17151 24.552 6.44186 24.8224 6.77911 24.8224H8.50484C8.84208 24.8224 9.12053 24.552 9.11431 24.2148V23.3611H18.9124V24.2148C18.9059 24.552 19.1847 24.8224 19.5219 24.8224H21.2476C21.5843 24.8224 21.8552 24.552 21.8552 24.2148V23.3611C22.6392 22.9072 22.7995 22.5183 22.7995 21.64V17.6152C22.7995 16.8909 22.746 15.298 22.6476 13.4653H24.7088C24.9209 13.4653 25.0793 13.2967 25.0665 13.0879L24.9664 11.0249C24.911 9.9155 24.0573 9.97678 23.4108 9.97678C23.198 9.97678 23.0412 10.1454 23.0512 10.356L23.1495 12.3537H22.5826C22.4221 9.73381 22.1791 6.8887 21.863 5.41061C21.6073 4.21034 20.8743 3.19269 19.6464 3.19269H8.38008V3.19238Z" fill="url(#paint0_linear_43_1832)"/>
<defs>
<linearGradient id="paint0_linear_43_1832" x1="2.95776" y1="14.0074" x2="25.0673" y2="14.0074" gradientUnits="userSpaceOnUse">
<stop stop-color="#E24854"/>
<stop offset="1" stop-color="#D13C48"/>
</linearGradient>
</defs>
</svg>
