<svg width="28" height="28" viewBox="0 0 28 28" fill="none" xmlns="http://www.w3.org/2000/svg">
<g clip-path="url(#clip0_43_1801)">
<path d="M23.0997 18.1064C21.7874 18.1064 20.7197 19.1744 20.7197 20.4864C20.7197 21.7988 21.7874 22.8664 23.0997 22.8664C24.4118 22.8664 25.4797 21.7988 25.4797 20.4864C25.4797 19.1744 24.4118 18.1064 23.0997 18.1064ZM23.0997 21.1864C22.7136 21.1864 22.3997 20.8725 22.3997 20.4864C22.3997 20.1003 22.7136 19.7864 23.0997 19.7864C23.4858 19.7864 23.7997 20.1003 23.7997 20.4864C23.7997 20.8725 23.4858 21.1864 23.0997 21.1864Z" fill="url(#paint0_linear_43_1801)"/>
<path d="M22.8723 8.21387H18.7602C18.4508 8.21387 18.2002 8.46477 18.2002 8.77387V19.6939C18.2002 20.003 18.4508 20.2539 18.7602 20.2539H19.3541C19.6313 20.2539 19.8769 20.0542 19.9127 19.7793C20.1325 18.0954 21.4756 17.051 23.1005 17.051C24.7253 17.051 26.0685 18.0954 26.2883 19.7793C26.3241 20.0543 26.5694 20.2539 26.8468 20.2539H27.4401C27.7492 20.2539 28.0002 20.003 28.0002 19.6939V14.2339C28.0002 14.1023 27.9539 13.9751 27.8697 13.8746L23.3017 8.41463C23.1954 8.28753 23.038 8.21387 22.8723 8.21387ZM19.3202 12.6939V9.89387C19.3202 9.58477 19.5708 9.33387 19.8802 9.33387H22.347C22.513 9.33387 22.6707 9.4078 22.7771 9.53545L25.1103 12.3354C25.4141 12.7003 25.1548 13.2539 24.68 13.2539H19.8802C19.5708 13.2539 19.3202 13.0033 19.3202 12.6939Z" fill="url(#paint1_linear_43_1801)"/>
<path d="M0.56 20.2538H1.9939C2.27111 20.2538 2.51666 20.0541 2.55248 19.7792C2.77227 18.0953 4.11545 17.0509 5.74027 17.0509C7.3651 17.0509 8.70827 18.0953 8.92806 19.7792C8.96389 20.0542 9.20916 20.2538 9.48665 20.2538H16.52C16.8291 20.2538 17.08 20.0029 17.08 19.6938V5.69379C17.08 5.38469 16.8291 5.13379 16.52 5.13379H0.56C0.250582 5.13379 0 5.38469 0 5.69379V19.6938C0 20.0029 0.250582 20.2538 0.56 20.2538Z" fill="url(#paint2_linear_43_1801)"/>
<path d="M5.74035 18.1064C4.42801 18.1064 3.36035 19.1744 3.36035 20.4864C3.36035 21.7988 4.42801 22.8664 5.74035 22.8664C7.05242 22.8664 8.12035 21.7988 8.12035 20.4864C8.12035 19.1744 7.05242 18.1064 5.74035 18.1064ZM5.74035 21.1864C5.35425 21.1864 5.04035 20.8725 5.04035 20.4864C5.04035 20.1003 5.35425 19.7864 5.74035 19.7864C6.12645 19.7864 6.44035 20.1003 6.44035 20.4864C6.44035 20.8725 6.12645 21.1864 5.74035 21.1864Z" fill="url(#paint3_linear_43_1801)"/>
</g>
<defs>
<linearGradient id="paint0_linear_43_1801" x1="20.7197" y1="20.4864" x2="25.4797" y2="20.4864" gradientUnits="userSpaceOnUse">
<stop stop-color="#E24854"/>
<stop offset="1" stop-color="#D13C48"/>
</linearGradient>
<linearGradient id="paint1_linear_43_1801" x1="18.2002" y1="14.2339" x2="28.0002" y2="14.2339" gradientUnits="userSpaceOnUse">
<stop stop-color="#E24854"/>
<stop offset="1" stop-color="#D13C48"/>
</linearGradient>
<linearGradient id="paint2_linear_43_1801" x1="0" y1="12.6938" x2="17.08" y2="12.6938" gradientUnits="userSpaceOnUse">
<stop stop-color="#E24854"/>
<stop offset="1" stop-color="#D13C48"/>
</linearGradient>
<linearGradient id="paint3_linear_43_1801" x1="3.36035" y1="20.4864" x2="8.12035" y2="20.4864" gradientUnits="userSpaceOnUse">
<stop stop-color="#E24854"/>
<stop offset="1" stop-color="#D13C48"/>
</linearGradient>
<clipPath id="clip0_43_1801">
<rect width="28" height="28" fill="white"/>
</clipPath>
</defs>
</svg>
