<svg width="28" height="28" viewBox="0 0 28 28" fill="none" xmlns="http://www.w3.org/2000/svg">
<path fill-rule="evenodd" clip-rule="evenodd" d="M2.20911 6.35761C2.46577 6.48252 2.98795 7.08407 3.17389 7.07825C3.239 7.07632 3.29951 6.78458 3.30565 6.73175C3.33943 6.43808 3.39116 5.97758 3.80005 6.03429C4.47549 6.12833 5.10282 6.53018 5.76211 6.70405C7.01055 7.03376 8.37797 7.21925 9.65916 7.38026C10.9548 7.54256 12.0125 7.22377 13.2713 7.23403C14.0123 7.23985 14.6397 7.59921 15.347 7.75699C15.7423 7.84521 16.1393 7.73057 16.5248 7.80853C16.9521 7.89481 16.8737 8.58137 17.2988 8.77648C17.6074 8.91883 17.9479 8.92529 18.2821 8.92077C18.3496 8.92012 18.6123 8.88214 18.6694 8.97424C18.9778 9.47401 18.3522 11.2618 19.5189 11.1575C19.8967 11.1234 20.0447 10.7241 20.3538 10.5888C20.6638 10.4523 21.0718 10.6513 21.3959 10.4761C21.7 10.3112 21.9177 10.0073 22.1992 9.80766C22.5686 9.54492 23.0158 9.4071 23.3117 9.04839C23.5697 8.7354 23.6489 8.30901 23.9264 8.01088C24.1804 7.73781 24.5275 7.58648 24.8067 7.34493C25.2866 6.92951 25.1825 6.31065 25.4948 5.8218C26.1025 4.8833 26.5417 5.92359 26.8543 6.4736C26.9278 6.58114 27.1113 6.75759 27.0727 6.89542C26.9117 7.46862 26.2909 7.73522 26.0506 8.27168C25.8915 8.62651 26.2251 9.00395 26.0751 9.37164C25.8961 9.8096 25.4689 10.0125 25.2324 10.3982C25.0296 10.7286 25.2258 11.0777 25.0943 11.408C24.914 11.8614 24.4703 12.128 24.3218 12.6278C24.0985 13.3794 25.1225 13.9893 24.7918 14.7782C24.4987 15.4776 23.5876 15.9239 23.1152 16.499C22.9846 16.6574 22.7425 16.9427 22.7197 17.1585C22.5328 18.4819 24.6456 20.0248 24.2312 21.259C24.0151 21.5842 23.6987 21.458 23.507 21.2261C23.0233 20.642 22.6336 19.9767 22.1355 19.3945C21.5358 18.6945 20.8028 18.9991 20.0061 18.8967C19.6024 18.8452 19.2528 18.5895 18.8264 18.7003C18.3289 18.8297 18.2399 19.6502 17.7753 19.915C16.4706 20.4728 15.3441 19.3891 14.7047 21.3988C14.5761 21.8786 14.5822 22.5123 13.8877 22.522C13.6539 22.5259 13.4013 22.2058 13.2775 22.0402C12.8583 21.4819 12.704 20.7702 12.2559 20.2144C11.7663 19.6064 11.2608 20.3464 10.7071 20.0527C10.06 19.7101 9.9146 18.8053 9.20971 18.3692C8.55558 17.9648 7.83467 18.5901 7.13669 18.5103C6.46409 18.4336 5.91473 17.8456 5.31905 17.5688C4.78841 17.3221 4.12828 17.324 3.63129 17.0516C3.35105 16.8977 3.18513 16.5956 2.9656 16.3741C2.61509 16.0205 2.1761 15.7939 1.9259 15.3469C1.55427 14.6835 1.65347 13.8502 1.44861 13.1321C1.26299 12.481 0.850219 11.8731 0.912609 11.1723C1.0038 10.147 1.55931 9.24667 1.83599 8.27097C2.0149 7.64048 1.89102 6.94108 2.20911 6.35761Z" fill="url(#paint0_linear_43_1882)"/>
<defs>
<linearGradient id="paint0_linear_43_1882" x1="0.90625" y1="13.9832" x2="27.078" y2="13.9832" gradientUnits="userSpaceOnUse">
<stop stop-color="#E24854"/>
<stop offset="1" stop-color="#D13C48"/>
</linearGradient>
</defs>
</svg>
