<svg width="28" height="28" viewBox="0 0 28 28" fill="none" xmlns="http://www.w3.org/2000/svg">
<g clip-path="url(#clip0_43_1790)">
<path d="M14 15.6406C14.453 15.6406 14.8203 15.2734 14.8203 14.8203C14.8203 14.3673 14.453 14 14 14C13.547 14 13.1797 14.3673 13.1797 14.8203C13.1797 15.2734 13.547 15.6406 14 15.6406Z" fill="url(#paint0_linear_43_1790)"/>
<path d="M14 0C6.29136 0 0 6.29174 0 14C0 21.7088 6.29174 28 14 28C21.7088 28 28 21.7083 28 14C28 6.29136 21.7083 0 14 0ZM14 3.33594C19.3224 3.33594 23.7464 7.25528 24.5378 12.3594H21.6931C19.8894 12.3594 18.1757 11.6356 16.9914 10.3736C15.3727 8.64845 12.6275 8.6479 11.0086 10.3736C9.82434 11.6356 8.11065 12.3594 6.30689 12.3594H3.46216C4.25365 7.25528 8.67765 3.33594 14 3.33594ZM14 17.2812C12.6431 17.2812 11.5391 16.1773 11.5391 14.8203C11.5391 13.4633 12.6431 12.3594 14 12.3594C15.357 12.3594 16.4609 13.4633 16.4609 14.8203C16.4609 16.1773 15.357 17.2812 14 17.2812ZM4.06984 17.8881C5.00883 17.5197 5.68684 17.2812 6.61719 17.2812C9.60794 17.2812 11.9339 19.9464 11.4833 22.9409H11.4814C11.4145 23.3992 11.2828 23.8433 11.0929 24.2613C7.87948 23.3496 5.27904 20.9657 4.06984 17.8881ZM16.9078 24.2611C16.7127 23.832 16.5838 23.388 16.5186 22.9409H16.5167C15.9917 19.4515 19.2128 16.5724 22.5516 17.4209C22.9036 17.5104 23.3441 17.6583 23.9301 17.8882C22.721 20.9655 20.1208 23.3493 16.9078 24.2611Z" fill="url(#paint1_linear_43_1790)"/>
</g>
<defs>
<linearGradient id="paint0_linear_43_1790" x1="13.1797" y1="14.8203" x2="14.8203" y2="14.8203" gradientUnits="userSpaceOnUse">
<stop stop-color="#E24854"/>
<stop offset="1" stop-color="#D13C48"/>
</linearGradient>
<linearGradient id="paint1_linear_43_1790" x1="0" y1="14" x2="28" y2="14" gradientUnits="userSpaceOnUse">
<stop stop-color="#E24854"/>
<stop offset="1" stop-color="#D13C48"/>
</linearGradient>
<clipPath id="clip0_43_1790">
<rect width="28" height="28" fill="white"/>
</clipPath>
</defs>
</svg>
