<svg width="100" height="100" viewBox="0 0 100 100" fill="none" xmlns="http://www.w3.org/2000/svg">
<path d="M96.1023 20.8528C92.4926 16.5618 85.8281 14.8115 73.1003 14.8115H26.8987C13.8797 14.8115 7.10226 16.6748 3.50613 21.2431C0 25.6973 0 32.2602 0 41.3435V58.656C0 76.2531 4.16 85.1877 26.8987 85.1877H73.1006C84.1381 85.1877 90.2542 83.6431 94.211 79.8564C98.2687 75.9731 100 69.6328 100 58.656V41.3435C100 31.7644 99.7287 25.1628 96.1023 20.8528ZM64.2003 52.3899L43.2203 63.3548C42.7513 63.5999 42.2384 63.7215 41.7261 63.7215C41.1461 63.7215 40.5674 63.5654 40.0548 63.2551C39.0897 62.6702 38.5003 61.6241 38.5003 60.4957V38.6364C38.5003 37.5099 39.0881 36.4648 40.0513 35.8796C41.0148 35.2944 42.2132 35.2544 43.2129 35.7738L64.1929 46.668C65.2603 47.2222 65.9306 48.3241 65.9323 49.5264C65.9335 50.7296 65.2661 51.8331 64.2003 52.3899Z" fill="white"/>
</svg>
