<svg width="21" height="13" viewBox="0 0 21 13" fill="none" xmlns="http://www.w3.org/2000/svg">
<path d="M20.0526 1.85748L20.0776 2.00736C19.836 1.22048 19.1835 0.613304 18.3543 0.392304L18.3368 0.388481C16.7777 1.04834e-05 10.5036 1.05683e-05 10.5036 1.05683e-05C10.5036 1.05683e-05 4.24532 -0.00763656 2.67034 0.388481C1.82535 0.613304 1.17202 1.22048 0.934524 1.9913L0.930357 2.00736C0.347864 4.7993 0.343698 8.15406 0.95619 11.1433L0.930357 10.9919C1.17202 11.7788 1.82451 12.3859 2.65367 12.6069L2.67117 12.6108C4.22865 13 10.5044 13 10.5044 13C10.5044 13 16.7618 13 18.3376 12.6108C19.1835 12.3859 19.8368 11.7788 20.0743 11.0079L20.0785 10.9919C20.3435 9.69342 20.4951 8.19918 20.4951 6.67283C20.4951 6.61701 20.4951 6.56042 20.4943 6.50383C20.4951 6.45183 20.4951 6.38989 20.4951 6.32795C20.4951 4.80083 20.3435 3.3066 20.0526 1.85748ZM8.50193 9.29194V3.71495L13.7235 6.50765L8.50193 9.29194Z" fill="white"/>
</svg>
